<svg width="33" height="24" viewBox="0 0 33 24" fill="none" xmlns="http://www.w3.org/2000/svg">
<g clip-path="url(#clip0_10_1652)">
<path d="M33 4.78979H31.0664V1.91422H28.1617V0H33V4.78979Z" fill="#262626"/>
<path d="M1.93359 4.78979H0V0H4.83828V1.91422H1.93359V4.78979Z" fill="#262626"/>
<path d="M33 24H28.1617V22.0858H31.0664V19.2102H33V24Z" fill="#262626"/>
<path d="M4.83828 24H0V19.2102H1.93359V22.0858H4.83828V24Z" fill="#262626"/>
<path d="M6.07581 3.69231H4.14221V20.3077H6.07581V3.69231Z" fill="#262626"/>
<path d="M9.87427 3.69231H7.94067V16.4793H9.87427V3.69231Z" fill="#262626"/>
<path d="M13.6726 3.69231H11.739V16.4793H13.6726V3.69231Z" fill="#262626"/>
<path d="M17.4625 3.69231H15.5289V20.3077H17.4625V3.69231Z" fill="#262626"/>
<path d="M21.261 3.69231H19.3274V20.3077H21.261V3.69231Z" fill="#262626"/>
<path d="M28.8578 3.69231H26.9242V20.3077H28.8578V3.69231Z" fill="#262626"/>
<path d="M25.0593 3.69231H23.1257V16.4793H25.0593V3.69231Z" fill="#262626"/>
<path d="M9.87427 18.3935H7.94067V20.3077H9.87427V18.3935Z" fill="#262626"/>
<path d="M13.6726 18.3935H11.739V20.3077H13.6726V18.3935Z" fill="#262626"/>
<path d="M25.0593 18.3935H23.1257V20.3077H25.0593V18.3935Z" fill="#262626"/>
</g>
<defs>
<clipPath id="clip0_10_1652">
<rect width="33" height="24" fill="white"/>
</clipPath>
</defs>
</svg>
