<svg width="11" height="12" viewBox="0 0 11 12" fill="none" xmlns="http://www.w3.org/2000/svg">
<path d="M8.98535 8.48535L5.47059 12.0001L1.95583 8.48535C1.26069 7.7902 0.787293 6.90453 0.595506 5.94034C0.40372 4.97615 0.502158 3.97674 0.878372 3.06849C1.25459 2.16024 1.89168 1.38395 2.70909 0.837778C3.52649 0.291608 4.4875 9.15527e-05 5.47059 9.15527e-05C6.45368 9.15527e-05 7.41469 0.291608 8.23209 0.837778C9.0495 1.38395 9.68659 2.16024 10.0628 3.06849C10.439 3.97674 10.5375 4.97615 10.3457 5.94034C10.1539 6.90453 9.68049 7.7902 8.98535 8.48535ZM5.47059 7.17975C6.05649 7.17975 6.6184 6.947 7.03269 6.53271C7.44699 6.11841 7.67974 5.55651 7.67974 4.97061C7.67974 4.38471 7.44699 3.82281 7.03269 3.40851C6.6184 2.99422 6.05649 2.76147 5.47059 2.76147C4.88469 2.76147 4.32278 2.99422 3.90848 3.40851C3.49419 3.82281 3.26144 4.38471 3.26144 4.97061C3.26144 5.55651 3.49419 6.11841 3.90848 6.53271C4.32278 6.947 4.88469 7.17975 5.47059 7.17975ZM5.47059 6.07518C5.17764 6.07518 4.89669 5.95881 4.68954 5.75166C4.48239 5.54451 4.36601 5.26356 4.36601 4.97061C4.36601 4.67766 4.48239 4.39671 4.68954 4.18956C4.89669 3.98242 5.17764 3.86604 5.47059 3.86604C5.76354 3.86604 6.04449 3.98242 6.25164 4.18956C6.45879 4.39671 6.57516 4.67766 6.57516 4.97061C6.57516 5.26356 6.45879 5.54451 6.25164 5.75166C6.04449 5.95881 5.76354 6.07518 5.47059 6.07518Z" fill="#2A2A2A"/>
</svg>
