<svg width="20" height="20" viewBox="0 0 20 20" fill="none" xmlns="http://www.w3.org/2000/svg">
<g clip-path="url(#clip0_37_426)">
<path d="M18.5391 12.5H8.125C7.32031 12.5 6.66406 11.8437 6.66406 11.0391V8.95312C6.66406 8.14844 7.32031 7.49219 8.125 7.49219H18.5391C19.3437 7.49219 20 8.14844 20 8.95312V11.0391C20 11.8437 19.3437 12.5 18.5391 12.5ZM8.125 8.75C8.00781 8.75 7.91406 8.84375 7.91406 8.96094V11.0469C7.91406 11.1641 8.00781 11.2578 8.125 11.2578H18.5391C18.6562 11.2578 18.75 11.1641 18.75 11.0469V8.96094C18.75 8.84375 18.6562 8.75 18.5391 8.75H8.125Z" fill="#BDBDBD"/>
<path d="M18.5391 20H8.125C7.32031 20 6.66406 19.3438 6.66406 18.5391V16.4531C6.66406 15.6484 7.32031 14.9922 8.125 14.9922H18.5391C19.3437 14.9922 20 15.6484 20 16.4531V18.5391C20 19.3438 19.3437 20 18.5391 20ZM8.125 16.25C8.00781 16.25 7.91406 16.3438 7.91406 16.4609V18.5469C7.91406 18.6641 8.00781 18.7578 8.125 18.7578H18.5391C18.6562 18.7578 18.75 18.6641 18.75 18.5469V16.4609C18.75 16.3438 18.6562 16.25 18.5391 16.25H8.125Z" fill="#BDBDBD"/>
<path d="M2.5 12.5C1.125 12.5 0 11.375 0 10C0 8.625 1.125 7.5 2.5 7.5C3.875 7.5 5 8.625 5 10C5 11.375 3.875 12.5 2.5 12.5ZM2.5 8.75C1.8125 8.75 1.25 9.3125 1.25 10C1.25 10.6875 1.8125 11.25 2.5 11.25C3.1875 11.25 3.75 10.6875 3.75 10C3.75 9.3125 3.1875 8.75 2.5 8.75Z" fill="#BDBDBD"/>
<path d="M18.5391 5H8.125C7.32031 5 6.66406 4.34375 6.66406 3.53906V1.46094C6.66406 0.65625 7.32031 0 8.125 0H18.5391C19.3437 0 20 0.65625 20 1.46094V3.54688C20 4.34375 19.3437 5 18.5391 5ZM8.125 1.25C8.00781 1.25 7.91406 1.34375 7.91406 1.46094V3.54688C7.91406 3.66406 8.00781 3.75781 8.125 3.75781H18.5391C18.6562 3.75781 18.75 3.66406 18.75 3.54688V1.46094C18.75 1.34375 18.6562 1.25 18.5391 1.25H8.125Z" fill="#BDBDBD"/>
<path d="M2.5 5C1.125 5 0 3.875 0 2.5C0 1.125 1.125 0 2.5 0C3.875 0 5 1.125 5 2.5C5 3.875 3.875 5 2.5 5ZM2.5 1.25C1.8125 1.25 1.25 1.8125 1.25 2.5C1.25 3.1875 1.8125 3.75 2.5 3.75C3.1875 3.75 3.75 3.1875 3.75 2.5C3.75 1.8125 3.1875 1.25 2.5 1.25Z" fill="#BDBDBD"/>
<path d="M2.5 20C1.125 20 0 18.875 0 17.5C0 16.125 1.125 15 2.5 15C3.875 15 5 16.125 5 17.5C5 18.875 3.875 20 2.5 20ZM2.5 16.25C1.8125 16.25 1.25 16.8125 1.25 17.5C1.25 18.1875 1.8125 18.75 2.5 18.75C3.1875 18.75 3.75 18.1875 3.75 17.5C3.75 16.8125 3.1875 16.25 2.5 16.25Z" fill="#BDBDBD"/>
</g>
<defs>
<clipPath id="clip0_37_426">
<rect width="20" height="20" fill="white"/>
</clipPath>
</defs>
</svg>
