<svg width="19" height="22" viewBox="0 0 19 22" fill="none" xmlns="http://www.w3.org/2000/svg">
<path d="M9.42858 10.4795C6.54108 10.4795 4.19376 8.13214 4.19376 5.24464C4.19376 2.35714 6.54108 0 9.42858 0C12.3161 0 14.6634 2.34732 14.6634 5.23482C14.6634 8.12232 12.3161 10.4795 9.42858 10.4795ZM9.42858 1.57143C7.40536 1.57143 5.76518 3.21161 5.76518 5.23482C5.76518 7.25804 7.40536 8.90804 9.42858 8.90804C11.4518 8.90804 13.092 7.26786 13.092 5.24464C13.092 3.22143 11.4518 1.57143 9.42858 1.57143Z" fill="#BDBDBD"/>
<path d="M18.0714 22H0.785714C0.353571 22 0 21.6464 0 21.2143V17.5509C0 14.8009 2.22946 12.5714 4.97946 12.5714H13.8875C16.6277 12.5714 18.867 14.8009 18.867 17.5509V21.2143C18.8571 21.6464 18.5036 22 18.0714 22ZM1.57143 20.4286H17.2857V17.5509C17.2857 15.675 15.7536 14.1428 13.8777 14.1428H4.97946C3.10357 14.1428 1.57143 15.675 1.57143 17.5509V20.4286Z" fill="#BDBDBD"/>
</svg>
