<svg viewBox="0 0 20 20" xmlns="http://www.w3.org/2000/svg"><g fill="#b4bcc1"><path d="m19.22 13.75a.78.78 0 0 0 .78-.75v-8.31a3.14 3.14 0 0 0 -3.12-3.13h-1v-.78a.78.78 0 1 0 -1.56 0v.78h-3.58v-.78a.78.78 0 0 0 -1.56 0v.78h-3.52v-.78a.78.78 0 1 0 -1.56 0v.78h-1a3.13 3.13 0 0 0 -3.1 3.13v12.19a3.12 3.12 0 0 0 3.12 3.12h13.76a3.12 3.12 0 0 0 3.12-3.12.78.78 0 1 0 -1.56 0 1.56 1.56 0 0 1 -1.56 1.56h-13.76a1.56 1.56 0 0 1 -1.56-1.56v-12.19a1.56 1.56 0 0 1 1.56-1.56h1v.78a.78.78 0 1 0 1.56 0v-.78h3.5v.78a.78.78 0 0 0 1.56 0v-.78h3.56v.78a.78.78 0 0 0 1.56 0v-.78h1a1.56 1.56 0 0 1 1.56 1.56v8.31a.78.78 0 0 0 .8.75z"/><circle cx="4.88" cy="8.2" r=".78"/><circle cx="11.68" cy="8.2" r=".78"/><circle cx="15.08" cy="8.2" r=".78"/><circle cx="4.88" cy="11.6" r=".78"/><circle cx="4.88" cy="15" r=".78"/><circle cx="8.28" cy="8.2" r=".78"/><circle cx="8.28" cy="11.6" r=".78"/><circle cx="8.28" cy="15" r=".78"/><circle cx="11.68" cy="11.6" r=".78"/><circle cx="15.08" cy="11.6" r=".78"/><circle cx="11.68" cy="15" r=".78"/></g></svg>