<svg width="8" height="5" viewBox="0 0 8 5" fill="none" xmlns="http://www.w3.org/2000/svg">
<path d="M3.92819 0.00310421C3.77086 0.018271 3.62208 0.0818224 3.50235 0.184892L0.286805 2.94107C0.124989 3.07074 0.0227747 3.26055 0.00333929 3.46699C-0.0159931 3.67345 0.049161 3.87894 0.184061 4.03638C0.318853 4.19392 0.511849 4.29005 0.718753 4.30276C0.925748 4.31547 1.12901 4.24369 1.28216 4.10388L4 1.77352L6.71784 4.10388C6.87101 4.24369 7.07426 4.31547 7.28125 4.30276C7.48813 4.29005 7.68114 4.19392 7.81594 4.03638C7.95084 3.87894 8.01599 3.67345 7.99666 3.46699C7.97722 3.26052 7.87501 3.07073 7.71319 2.94107L4.49765 0.184892C4.34032 0.0496721 4.13481 -0.0159101 3.92826 0.00310421H3.92819Z" fill="#677294"/>
</svg>
