<svg width="8" height="5" viewBox="0 0 8 5" fill="none" xmlns="http://www.w3.org/2000/svg">
<path d="M4.07181 4.3011C4.22914 4.28593 4.37792 4.22238 4.49765 4.11931L7.7132 1.36313C7.87501 1.23346 7.97723 1.04365 7.99666 0.837214C8.01599 0.630752 7.95084 0.425264 7.81594 0.267823C7.68115 0.110281 7.48815 0.0141533 7.28125 0.00144152C7.07425 -0.0112686 6.87099 0.0605081 6.71784 0.200319L4 2.53068L1.28216 0.200319C1.12899 0.0605054 0.925741 -0.0112703 0.718754 0.00144152C0.511866 0.0141517 0.318862 0.110281 0.184061 0.267823C0.0491612 0.425259 -0.0159916 0.630747 0.00333996 0.837214C0.0227792 1.04368 0.124995 1.23347 0.286805 1.36313L3.50235 4.11931C3.65968 4.25453 3.86519 4.32011 4.07174 4.3011H4.07181Z" fill="#677294"/>
</svg>
