<svg width="30" height="34" viewBox="0 0 30 34" fill="none" xmlns="http://www.w3.org/2000/svg">
<g clip-path="url(#clip0_10_1699)">
<path d="M1.0625 3.89141C1.0625 4.675 1.39453 5.37891 1.89922 5.88359C2.40391 6.38828 3.12109 6.72031 3.89141 6.72031H25.8453V1.0625H3.89141C2.3375 1.0625 1.0625 2.3375 1.0625 3.89141Z" fill="#CF55C5"/>
<path d="M1.0625 3.8914V30.0953C1.0625 31.6492 2.3375 32.9242 3.89141 32.9242H28.6875V6.73359H3.89141C3.10781 6.73359 2.40391 6.40156 1.89922 5.89687C1.39453 5.3789 1.0625 4.675 1.0625 3.8914Z" fill="#F3F3F1"/>
<path d="M15.9375 6.7336V25.8586L11.3289 23.0297L6.72034 25.8586V6.7336H15.9375Z" fill="#CF55C5"/>
<path d="M4.25 3.89141C4.25 2.3375 5.525 1.0625 7.07891 1.0625H3.89141C2.3375 1.0625 1.0625 2.3375 1.0625 3.89141C1.0625 4.675 1.39453 5.37891 1.89922 5.88359C2.40391 6.38828 3.12109 6.72031 3.89141 6.72031H7.07891C6.29531 6.72031 5.59141 6.38828 5.08672 5.88359C4.58203 5.37891 4.25 4.675 4.25 3.89141Z" fill="#963B8E"/>
<path d="M9.92108 6.7336H6.73358V25.8586L9.92108 23.893V6.7336Z" fill="#963B8E"/>
<path d="M4.25 30.1086V6.7336H3.89141C3.10781 6.7336 2.40391 6.40157 1.89922 5.89688C1.39453 5.39219 1.0625 4.67501 1.0625 3.90469V30.1086C1.0625 31.6625 2.3375 32.9375 3.89141 32.9375H7.07891C5.525 32.9375 4.25 31.6625 4.25 30.1086Z" fill="#D5DBE1"/>
<path d="M28.6875 34H3.89141C1.75312 34 0 32.2469 0 30.1086V3.89141C0 1.75312 1.75312 0 3.89141 0H25.8453C26.4297 0 26.9078 0.478125 26.9078 1.0625V5.67109H28.6875C29.2719 5.67109 29.75 6.14922 29.75 6.73359V32.9375C29.75 33.5219 29.2719 34 28.6875 34ZM2.125 7.37109V30.1086C2.125 31.0781 2.92187 31.875 3.89141 31.875H27.625V7.79609H3.89141C3.25391 7.79609 2.65625 7.63672 2.125 7.37109ZM3.89141 2.125C2.92187 2.125 2.125 2.92187 2.125 3.89141C2.125 4.87422 2.92187 5.65781 3.89141 5.65781H24.7828V2.125H3.89141Z" fill="#262626"/>
<path d="M15.9375 26.9211C15.7382 26.9211 15.5523 26.868 15.3797 26.7617L11.3289 24.2648L7.27809 26.7617C6.94606 26.9609 6.53434 26.9742 6.20231 26.7883C5.87028 26.6023 5.65778 26.2438 5.65778 25.8586V6.7336H7.78278V23.9594L10.7711 22.1266C11.1164 21.9141 11.5414 21.9141 11.8867 22.1266L14.875 23.9594V6.7336H17V25.8586C17 26.2438 16.7875 26.6023 16.4554 26.7883C16.2961 26.868 16.1101 26.9211 15.9375 26.9211Z" fill="#262626"/>
</g>
<defs>
<clipPath id="clip0_10_1699">
<rect width="29.75" height="34" fill="white"/>
</clipPath>
</defs>
</svg>
