<svg width="22" height="22" viewBox="0 0 22 22" fill="none" xmlns="http://www.w3.org/2000/svg">
<path d="M3.39228 4.70801C2.85399 5.19731 2.36791 5.78195 1.94735 6.44593C1.25739 7.45772 0.862167 8.76669 0.833565 10.1348C0.80496 11.5029 1.14487 12.8393 1.79149 13.901C2.53233 15.0636 3.56176 15.8309 4.69143 16.0627C5.72015 16.2854 6.77067 16.2551 7.79124 15.9733C8.27802 15.8531 8.77078 15.7811 9.2655 15.7577C9.48068 15.7056 9.70256 15.7697 9.88238 15.936C10.0622 16.1022 10.1853 16.357 10.2245 16.6444V16.6628C10.2461 16.8213 10.2426 16.984 10.2142 17.1406C10.1857 17.2971 10.133 17.444 10.0595 17.5716C9.82318 18.0465 9.56345 18.4998 9.28201 18.9286C9.04371 19.2691 8.87647 19.6872 8.797 20.1411C8.74957 20.3745 8.76953 20.6231 8.85291 20.8377C8.9363 21.0523 9.07702 21.2172 9.24717 21.2997C10.1481 21.8472 11.1384 22.0798 12.1251 21.9758C14.6603 21.8278 17.1152 20.7447 19.2177 18.8465C19.912 18.2289 20.5071 17.4325 20.968 16.5037C21.429 15.575 21.7466 14.5328 21.9022 13.438C22.0414 12.4759 22.0319 11.4859 21.8742 10.5289C21.7166 9.57181 21.4141 8.66793 20.9854 7.87277C20.0017 5.93629 18.6302 4.40842 17.0274 3.46366C15.3707 2.39465 13.5707 1.77894 11.7332 1.65274C9.8958 1.52654 8.05802 1.8924 6.32797 2.72881C6.2913 2.75331 3.45737 4.78272 3.39228 4.70801Z" fill="#272961"/>
<path d="M18.1102 11.8054C17.583 11.7809 17.066 12.0036 16.6487 12.4349C16.4269 12.6356 16.2721 12.9437 16.2172 13.2941C16.1623 13.6445 16.2115 14.0096 16.3544 14.3124C16.4301 14.4727 16.5304 14.6096 16.6487 14.7141C17.0771 15.1187 17.5888 15.336 18.1134 15.336C18.638 15.336 19.1497 15.1187 19.578 14.7141C19.8012 14.5145 19.9575 14.2067 20.014 13.8559C20.0704 13.5051 20.0226 13.1387 19.8806 12.8342C19.8022 12.6656 19.6966 12.5225 19.5716 12.4153C19.1526 11.9905 18.6357 11.7747 18.1102 11.8054Z" fill="white"/>
<path d="M18.3687 10.2807C18.7542 10.2901 19.1313 10.1305 19.4424 9.82636C19.6235 9.67447 19.7534 9.43455 19.8048 9.15717C19.8561 8.8798 19.8248 8.58664 19.7174 8.33951C19.6525 8.18995 19.5612 8.06382 19.4515 7.97209C19.1204 7.66256 18.7252 7.4991 18.3211 7.50459C17.917 7.51008 17.5243 7.68425 17.1979 8.00271C17.0247 8.16428 16.9054 8.40956 16.8652 8.68661C16.825 8.96367 16.867 9.25076 16.9825 9.48711C17.0372 9.59951 17.1075 9.69681 17.1897 9.7737C17.5249 10.1252 17.943 10.305 18.3687 10.2807Z" fill="white"/>
<path d="M15.4853 6.67876C15.6644 6.69201 15.8437 6.65711 16.0125 6.57612C16.1813 6.49512 16.3363 6.36968 16.4681 6.20723C16.5984 6.05729 16.6796 5.84532 16.6945 5.61653C16.7094 5.38773 16.6568 5.16021 16.5479 4.98248C16.5237 4.94318 16.497 4.90672 16.4681 4.87348C16.195 4.56855 15.8504 4.40149 15.4945 4.40149C15.1385 4.40149 14.7939 4.56855 14.5208 4.87348C14.391 5.02376 14.31 5.23565 14.2951 5.46427C14.2803 5.69288 14.3326 5.92025 14.441 6.09823C14.475 6.1551 14.5145 6.20574 14.5584 6.24887C14.8169 6.54036 15.1471 6.69351 15.4853 6.67876Z" fill="white"/>
<path d="M13.8818 15.1565C13.2902 15.1283 12.7094 15.374 12.2379 15.8522C11.9925 16.0683 11.8196 16.4034 11.7558 16.7867C11.6919 17.17 11.7422 17.5714 11.8959 17.9061C11.9825 18.094 12.0993 18.2538 12.2379 18.374C12.7226 18.8231 13.2983 19.0637 13.8882 19.0637C14.4781 19.0637 15.0538 18.8231 15.5385 18.374C15.7862 18.1605 15.962 17.8267 16.0288 17.4431C16.0955 17.0595 16.0479 16.6563 15.8961 16.3188C15.8044 16.1192 15.6787 15.9514 15.5293 15.8289C15.0545 15.358 14.4725 15.1205 13.8818 15.1565Z" fill="white"/>
<path d="M1.46896 2.58275L1.47583 2.59287L1.4822 2.60332C2.53882 4.33633 3.67047 5.98395 4.8711 7.53774C5.11287 7.22847 5.35098 6.91384 5.58544 6.59385L5.60138 6.57209L5.61956 6.55218C5.61916 6.55262 5.62492 6.54623 5.63164 6.5298C5.63826 6.51359 5.64418 6.4915 5.6465 6.4649C5.65127 6.41011 5.63874 6.36489 5.62611 6.34093C5.62294 6.33588 5.61999 6.33173 5.61739 6.32842L5.61086 6.32011L5.6047 6.31152C5.59912 6.30377 5.59377 6.2972 5.58879 6.29171L5.57218 6.27336L5.55745 6.25346C4.38098 4.66308 3.13793 3.16464 1.83454 1.76531L1.83452 1.76533L1.83064 1.76108C1.45158 1.34461 1.04439 0.982314 0.615879 0.678436C0.595062 0.664711 0.574152 0.651591 0.55316 0.639065C0.773036 1.35808 1.08389 2.0156 1.46896 2.58275Z" fill="white" stroke="#272961"/>
<path d="M10.0851 12.157C10.0757 12.1571 10.0664 12.1595 10.0576 12.1643C9.62995 12.5347 9.11505 12.6813 8.61147 12.5763C8.1079 12.4712 7.65101 12.1218 7.32823 11.5948C7.18932 11.3986 7.08375 11.1646 7.01872 10.9088C6.95369 10.6531 6.93073 10.3816 6.95141 10.1129C6.98214 9.80173 7.08849 9.51265 7.25412 9.29006C7.41975 9.06748 7.63551 8.92368 7.86825 8.88078C8.02958 8.85948 8.1923 8.89431 8.34059 8.98187C8.48887 9.06943 8.61767 9.20675 8.71448 9.38048C8.8472 9.61779 8.93638 9.8934 8.97486 10.1851C9.05389 10.5911 9.1928 10.972 9.38346 11.3053C9.57411 11.6387 9.81267 11.9178 10.0851 12.1264V12.157Z" fill="white"/>
<path d="M5.35433 8.27323C5.6523 7.87274 5.95486 7.47592 6.2565 7.07787C6.27314 7.04703 6.29419 7.02088 6.31842 7.00091C6.34264 6.98095 6.36958 6.96757 6.39769 6.96154C6.42579 6.95551 6.45452 6.95695 6.48221 6.96577C6.5099 6.9746 6.53601 6.99063 6.55905 7.01296H6.56455C6.58802 7.0369 6.60766 7.06689 6.62231 7.10114C6.87719 7.54532 7.13085 7.99113 7.38328 8.43857C7.41731 8.48955 7.4355 8.55595 7.43413 8.62423C7.43277 8.6925 7.41196 8.75751 7.37595 8.806L7.36586 8.81824C7.14032 9.11708 6.91478 9.41429 6.68924 9.70986C6.67238 9.7382 6.6515 9.7618 6.62778 9.77931C6.60407 9.79682 6.57799 9.80788 6.55106 9.81186C6.52413 9.81585 6.49688 9.81267 6.47087 9.80252C6.44486 9.79238 6.42061 9.77545 6.39952 9.75273C6.05571 9.41347 5.71098 9.07422 5.37267 8.72516C5.32205 8.65243 5.28001 8.56983 5.24798 8.48021C5.27895 8.40729 5.31453 8.33805 5.35433 8.27323Z" fill="white"/>
<path d="M12.0426 5.00201C12.187 5.01252 12.3316 4.98301 12.4671 4.91536C12.6026 4.84771 12.7262 4.74336 12.8301 4.60886C12.9378 4.47581 13.0025 4.29213 13.0107 4.09655C13.0189 3.90097 12.97 3.70877 12.8741 3.56048C12.8604 3.53889 12.8457 3.51843 12.8301 3.49924C12.6148 3.2459 12.3377 3.10614 12.0508 3.10614C11.7639 3.10614 11.4868 3.2459 11.2715 3.49924C11.1636 3.63234 11.0987 3.81627 11.0905 4.01215C11.0823 4.20803 11.1314 4.40049 11.2275 4.54885C11.2497 4.58333 11.2742 4.61491 11.3009 4.64316C11.5049 4.88461 11.7701 5.01296 12.0426 5.00201Z" fill="white"/>
<path d="M8.50728 5.35608C8.65157 5.36611 8.79587 5.33639 8.9312 5.26876C9.06653 5.20113 9.18999 5.09702 9.29392 4.96293C9.40181 4.82983 9.46673 4.6459 9.47494 4.45002C9.48316 4.25414 9.43402 4.06168 9.33793 3.91332C9.3242 3.89212 9.3095 3.87208 9.29392 3.85331C9.07861 3.59997 8.80154 3.46021 8.51461 3.46021C8.22769 3.46021 7.95062 3.59997 7.73531 3.85331C7.62795 3.98631 7.56338 4.16974 7.55517 4.36503C7.54696 4.56032 7.59576 4.75225 7.6913 4.90047C7.71383 4.93569 7.73902 4.9677 7.76648 4.996C7.96982 5.23825 8.23495 5.36712 8.50728 5.35608Z" fill="white"/>
</svg>
