<svg width="18" height="18" viewBox="0 0 18 18" fill="none" xmlns="http://www.w3.org/2000/svg">
<path d="M6.0947 2.10819C6.31562 2.10819 6.4953 1.92849 6.4953 1.70759V0.398073C6.4953 0.178621 6.3156 0 6.0947 0C5.87511 0 5.69635 0.178631 5.69635 0.398073V1.70759C5.69635 1.92851 5.87511 2.10819 6.0947 2.10819Z" fill="#9D9D9D"/>
<path d="M3.19113 2.10819C3.41205 2.10819 3.59173 1.92849 3.59173 1.70759V0.398073C3.59173 0.178621 3.41204 0 3.19113 0C2.97155 0 2.79279 0.178631 2.79279 0.398073V1.70759C2.79279 1.92851 2.97155 2.10819 3.19113 2.10819Z" fill="#9D9D9D"/>
<path d="M8.99759 2.10819C9.21851 2.10819 9.39819 1.92849 9.39819 1.70759V0.398073C9.39819 0.178621 9.21849 0 8.99759 0C8.778 0 8.59924 0.178631 8.59924 0.398073V1.70759C8.59924 1.92851 8.77801 2.10819 8.99759 2.10819Z" fill="#9D9D9D"/>
<path d="M14.804 2.10819C15.025 2.10819 15.2046 1.92849 15.2046 1.70759V0.398073C15.2046 0.178621 15.025 0 14.804 0C14.5845 0 14.4057 0.178631 14.4057 0.398073V1.70759C14.4057 1.92851 14.5845 2.10819 14.804 2.10819Z" fill="#9D9D9D"/>
<path d="M11.9008 2.10819C12.1217 2.10819 12.3014 1.92849 12.3014 1.70759V0.398073C12.3014 0.178621 12.1217 0 11.9008 0C11.6812 0 11.5024 0.178631 11.5024 0.398073V1.70759C11.5024 1.92851 11.6812 2.10819 11.9008 2.10819Z" fill="#9D9D9D"/>
<path d="M1.01501 16.5283H16.9827V4.60938H1.01501V16.5283ZM14.0555 5.79103C14.0555 5.63067 14.1855 5.50074 14.3458 5.50074H15.5645C15.7248 5.50074 15.8548 5.63067 15.8548 5.79103V7.0097C15.8548 7.17005 15.7248 7.29999 15.5645 7.29999H14.3458C14.1855 7.29999 14.0555 7.17005 14.0555 7.0097V5.79103ZM14.0555 8.56999C14.0555 8.40964 14.1855 8.2797 14.3458 8.2797H15.5645C15.7248 8.2797 15.8548 8.40964 15.8548 8.56999V9.78866C15.8548 9.94902 15.7248 10.079 15.5645 10.079H14.3458C14.1855 10.079 14.0555 9.94902 14.0555 9.78866V8.56999ZM14.0555 11.3491C14.0555 11.1887 14.1855 11.0588 14.3458 11.0588H15.5645C15.7248 11.0588 15.8548 11.1887 15.8548 11.3491V12.5678C15.8548 12.7281 15.7248 12.8581 15.5645 12.8581H14.3458C14.1855 12.8581 14.0555 12.7281 14.0555 12.5678V11.3491ZM11.0774 5.79089C11.0774 5.63054 11.2073 5.5006 11.3677 5.5006H12.5864C12.7467 5.5006 12.8766 5.63054 12.8766 5.79089V7.00956C12.8766 7.16992 12.7467 7.29985 12.5864 7.29985H11.3677C11.2073 7.29985 11.0774 7.16992 11.0774 7.00956V5.79089ZM11.0774 8.56985C11.0774 8.4095 11.2073 8.27956 11.3677 8.27956H12.5864C12.7467 8.27956 12.8766 8.4095 12.8766 8.56985V9.78853C12.8766 9.94888 12.7467 10.0788 12.5864 10.0788H11.3677C11.2073 10.0788 11.0774 9.94888 11.0774 9.78853V8.56985ZM11.0774 11.349C11.0774 11.1886 11.2073 11.0587 11.3677 11.0587H12.5864C12.7467 11.0587 12.8766 11.1886 12.8766 11.349V12.5676C12.8766 12.728 12.7467 12.8579 12.5864 12.8579H11.3677C11.2073 12.8579 11.0774 12.728 11.0774 12.5676V11.349ZM8.09926 8.56985C8.09926 8.4095 8.22919 8.27956 8.38955 8.27956H9.60822C9.76857 8.27956 9.89851 8.4095 9.89851 8.56985V9.78853C9.89851 9.94888 9.76857 10.0788 9.60822 10.0788H8.38955C8.22919 10.0788 8.09926 9.94888 8.09926 9.78853V8.56985ZM8.09926 11.349C8.09926 11.1886 8.22919 11.0587 8.38955 11.0587H9.60822C9.76857 11.0587 9.89851 11.1886 9.89851 11.349V12.5676C9.89851 12.728 9.76857 12.8579 9.60822 12.8579H8.38955C8.22919 12.8579 8.09926 12.728 8.09926 12.5676V11.349ZM5.12112 8.56985C5.12112 8.4095 5.25106 8.27956 5.41141 8.27956H6.63008C6.79043 8.27956 6.92037 8.4095 6.92037 8.56985V9.78853C6.92037 9.94888 6.79043 10.0788 6.63008 10.0788H5.41141C5.25106 10.0788 5.12112 9.94888 5.12112 9.78853V8.56985ZM5.12112 11.349C5.12112 11.1886 5.25106 11.0587 5.41141 11.0587H6.63008C6.79043 11.0587 6.92037 11.1886 6.92037 11.349V12.5676C6.92037 12.728 6.79043 12.8579 6.63008 12.8579H5.41141C5.25106 12.8579 5.12112 12.728 5.12112 12.5676V11.349ZM5.12112 14.1281C5.12112 13.9677 5.25106 13.8378 5.41141 13.8378H6.63008C6.79043 13.8378 6.92037 13.9677 6.92037 14.1281V15.3467C6.92037 15.5071 6.79043 15.637 6.63008 15.637H5.41141C5.25106 15.637 5.12112 15.5071 5.12112 15.3467V14.1281ZM2.14298 8.56985C2.14298 8.4095 2.27292 8.27956 2.43327 8.27956H3.65194C3.81229 8.27956 3.94223 8.4095 3.94223 8.56985V9.78853C3.94223 9.94888 3.81229 10.0788 3.65194 10.0788H2.43327C2.27292 10.0788 2.14298 9.94888 2.14298 9.78853V8.56985ZM2.14298 11.349C2.14298 11.1886 2.27292 11.0587 2.43327 11.0587H3.65194C3.81229 11.0587 3.94223 11.1886 3.94223 11.349V12.5676C3.94223 12.728 3.81229 12.8579 3.65194 12.8579H2.43327C2.27292 12.8579 2.14298 12.728 2.14298 12.5676V11.349ZM2.14298 14.1281C2.14298 13.9677 2.27292 13.8378 2.43327 13.8378H3.65194C3.81229 13.8378 3.94223 13.9677 3.94223 14.1281V15.3467C3.94223 15.5071 3.81229 15.637 3.65194 15.637H2.43327C2.27292 15.637 2.14298 15.5071 2.14298 15.3467V14.1281Z" fill="#9D9D9D"/>
<path d="M18 2.21513C18 1.65497 17.5441 1.19897 16.9838 1.19897H15.495V1.70767C15.495 2.08866 15.1851 2.39856 14.8041 2.39856C14.4243 2.39856 14.1155 2.08866 14.1155 1.70767V1.19897H12.5919V1.70767C12.5919 2.08866 12.282 2.39856 11.901 2.39856C11.5212 2.39856 11.2124 2.08866 11.2124 1.70767L11.2122 1.19897H9.68862V1.70767C9.68862 2.08866 9.37872 2.39856 8.99773 2.39856C8.61793 2.39856 8.30909 2.08866 8.30909 1.70767V1.19897H6.78548V1.70767C6.78548 2.08866 6.47558 2.39856 6.09459 2.39856C5.71479 2.39856 5.40595 2.08866 5.40595 1.70767L5.40582 1.19897H3.8822V1.70767C3.8822 2.08866 3.5723 2.39856 3.19131 2.39856C2.81151 2.39856 2.50268 2.08866 2.50268 1.70767V1.19897H1.01615C0.455995 1.19897 0 1.65483 0 2.21513V16.6729C0 17.2331 0.455858 17.6891 1.01615 17.6891H16.9838C17.544 17.6891 18 17.2332 18 16.6729V2.21513H18ZM17.2729 16.6736C17.2729 16.7538 17.208 16.8188 17.1278 16.8188H0.86984C0.789662 16.8188 0.724695 16.7538 0.724695 16.6736V4.46436C0.724695 4.38419 0.789662 4.31922 0.86984 4.31922H17.1278C17.208 4.31922 17.2729 4.38419 17.2729 4.46436V16.6736Z" fill="#9D9D9D"/>
</svg>
