<svg width="12" height="12" viewBox="0 0 12 12" fill="none" xmlns="http://www.w3.org/2000/svg">
<path d="M7.12081 6.02386L11.7161 1.42852C11.8881 1.28132 11.9907 1.0693 11.9994 0.843136C12.0081 0.617106 11.9222 0.397728 11.7622 0.237777C11.6022 0.077801 11.3829 -0.00809675 11.1569 0.00060193C10.9307 0.00930061 10.7187 0.111917 10.5715 0.283852L5.97614 4.87919L1.38079 0.283852C1.17175 0.104851 0.886327 0.0438239 0.622513 0.121841C0.358564 0.199993 0.152227 0.406315 0.0740779 0.670275C-0.00393884 0.934089 0.0570885 1.21951 0.236089 1.42856L4.83143 6.0239L0.236089 10.6192C0.0848122 10.7713 0 10.9771 0 11.1916C0 11.4061 0.0848122 11.6118 0.236089 11.7639C0.388181 11.9152 0.593953 12 0.808428 12C1.0229 12 1.22868 11.9152 1.38077 11.7639L5.97611 7.16857L10.5715 11.7639C10.7235 11.9152 10.9293 12 11.1438 12C11.3583 12 11.564 11.9152 11.7161 11.7639C11.8674 11.6118 11.9522 11.4061 11.9522 11.1916C11.9522 10.9771 11.8674 10.7713 11.7161 10.6192L7.12081 6.02386Z" fill="#939393"/>
</svg>
