<svg width="22" height="22" viewBox="0 0 22 22" fill="none" xmlns="http://www.w3.org/2000/svg">
<path d="M3.39228 4.70801C2.85399 5.19731 2.36791 5.78195 1.94735 6.44593C1.25739 7.45772 0.862167 8.76669 0.833564 10.1348C0.804961 11.5029 1.14487 12.8393 1.79149 13.901C2.53233 15.0636 3.56176 15.8309 4.69143 16.0627C5.72015 16.2854 6.77067 16.2551 7.79124 15.9733C8.27802 15.8531 8.77078 15.7811 9.2655 15.7577C9.48068 15.7056 9.70256 15.7697 9.88238 15.936C10.0622 16.1022 10.1853 16.357 10.2245 16.6444V16.6628C10.2461 16.8213 10.2426 16.984 10.2142 17.1406C10.1857 17.2971 10.133 17.444 10.0595 17.5716C9.82318 18.0465 9.56345 18.4998 9.28201 18.9286C9.04371 19.2691 8.87647 19.6872 8.797 20.1411C8.74957 20.3745 8.76953 20.6231 8.85291 20.8377C8.9363 21.0523 9.07702 21.2172 9.24717 21.2997C10.1481 21.8472 11.1384 22.0798 12.1251 21.9758C14.6603 21.8278 17.1152 20.7447 19.2177 18.8465C19.912 18.2289 20.5071 17.4325 20.968 16.5037C21.429 15.575 21.7466 14.5328 21.9022 13.438C22.0414 12.4759 22.0319 11.4859 21.8742 10.5289C21.7166 9.57181 21.4141 8.66793 20.9854 7.87277C20.0017 5.93629 18.6302 4.40842 17.0274 3.46366C15.3707 2.39465 13.5707 1.77894 11.7332 1.65274C9.8958 1.52654 8.05802 1.8924 6.32797 2.72881C6.2913 2.75331 3.45737 4.78272 3.39228 4.70801Z" fill="#272961"/>
<path d="M18.1102 11.8054C17.583 11.7809 17.066 12.0036 16.6487 12.4349C16.4269 12.6356 16.2721 12.9437 16.2172 13.2941C16.1623 13.6445 16.2115 14.0096 16.3544 14.3124C16.4301 14.4727 16.5304 14.6096 16.6487 14.7141C17.0771 15.1187 17.5888 15.336 18.1134 15.336C18.638 15.336 19.1497 15.1187 19.578 14.7141C19.8012 14.5145 19.9575 14.2067 20.014 13.8559C20.0704 13.5051 20.0226 13.1387 19.8806 12.8342C19.8022 12.6656 19.6966 12.5225 19.5716 12.4153C19.1526 11.9905 18.6357 11.7747 18.1102 11.8054Z" fill="white"/>
<path d="M18.3687 10.2807C18.7541 10.29 19.1312 10.1304 19.4423 9.8263C19.6235 9.67441 19.7534 9.43449 19.8047 9.15711C19.856 8.87974 19.8247 8.58658 19.7174 8.33945C19.6525 8.18989 19.5612 8.06376 19.4515 7.97203C19.1204 7.6625 18.7251 7.49904 18.321 7.50453C17.9169 7.51002 17.5242 7.68418 17.1979 8.00264C17.0247 8.16422 16.9054 8.4095 16.8651 8.68655C16.8249 8.96361 16.867 9.2507 16.9825 9.48705C17.0371 9.59945 17.1075 9.69675 17.1897 9.77364C17.5248 10.1251 17.943 10.305 18.3687 10.2807Z" fill="white"/>
<path d="M15.4853 6.67864C15.6644 6.69189 15.8437 6.65699 16.0125 6.57599C16.1813 6.495 16.3363 6.36956 16.4681 6.20711C16.5984 6.05717 16.6796 5.8452 16.6945 5.6164C16.7094 5.38761 16.6568 5.16008 16.5479 4.98236C16.5237 4.94306 16.497 4.9066 16.4681 4.87335C16.195 4.56842 15.8504 4.40137 15.4945 4.40137C15.1385 4.40137 14.7939 4.56842 14.5208 4.87335C14.391 5.02364 14.31 5.23553 14.2951 5.46414C14.2803 5.69275 14.3326 5.92013 14.441 6.09811C14.475 6.15497 14.5145 6.20562 14.5584 6.24875C14.8169 6.54024 15.1471 6.69339 15.4853 6.67864Z" fill="white"/>
<path d="M13.8818 15.1564C13.2901 15.1282 12.7094 15.3739 12.2379 15.8521C11.9924 16.0682 11.8196 16.4033 11.7557 16.7866C11.6919 17.1699 11.7422 17.5713 11.8959 17.906C11.9825 18.0939 12.0993 18.2537 12.2379 18.3738C12.7225 18.823 13.2983 19.0636 13.8882 19.0636C14.478 19.0636 15.0538 18.823 15.5385 18.3738C15.7862 18.1604 15.962 17.8265 16.0287 17.443C16.0955 17.0594 16.0479 16.6562 15.896 16.3187C15.8044 16.1191 15.6787 15.9512 15.5293 15.8288C15.0545 15.3579 14.4725 15.1203 13.8818 15.1564Z" fill="white"/>
<path d="M1.46896 2.58275L1.47583 2.59287L1.4822 2.60332C2.53882 4.33633 3.67047 5.98395 4.8711 7.53774C5.11287 7.22847 5.35098 6.91384 5.58544 6.59385L5.60138 6.57209L5.61957 6.55218C5.61953 6.55222 5.61954 6.55221 5.61957 6.55217C5.62002 6.55161 5.62542 6.54501 5.63164 6.5298C5.63826 6.51359 5.64418 6.4915 5.6465 6.4649C5.65127 6.41011 5.63874 6.36489 5.62611 6.34093C5.62294 6.33587 5.61999 6.33174 5.61739 6.32843L5.61086 6.32011L5.6047 6.31152C5.59912 6.30376 5.59377 6.2972 5.5888 6.29172L5.57218 6.27336L5.55745 6.25346C4.38098 4.66308 3.13793 3.16464 1.83454 1.76531L1.83452 1.76533L1.83064 1.76108C1.45158 1.34461 1.04439 0.982312 0.615875 0.678433C0.595059 0.664709 0.57415 0.65159 0.55316 0.639065C0.773036 1.35808 1.08389 2.0156 1.46896 2.58275Z" fill="white" stroke="#272961"/>
<path d="M10.0851 12.157C10.0757 12.1571 10.0664 12.1596 10.0576 12.1644C9.62995 12.5347 9.11505 12.6814 8.61147 12.5763C8.1079 12.4712 7.65101 12.1218 7.32823 11.5949C7.18932 11.3986 7.08375 11.1646 7.01872 10.9089C6.95369 10.6531 6.93073 10.3816 6.95141 10.1129C6.98214 9.80179 7.08849 9.51271 7.25412 9.29013C7.41975 9.06754 7.63551 8.92375 7.86825 8.88084C8.02958 8.85954 8.1923 8.89437 8.34059 8.98193C8.48887 9.06949 8.61767 9.20681 8.71448 9.38054C8.8472 9.61786 8.93638 9.89346 8.97486 10.1852C9.05389 10.5912 9.1928 10.972 9.38346 11.3054C9.57411 11.6387 9.81267 11.9179 10.0851 12.1264V12.157Z" fill="white"/>
<path d="M5.3543 8.27335C5.65227 7.87286 5.95483 7.47604 6.25646 7.07799C6.27311 7.04715 6.29416 7.021 6.31839 7.00104C6.34261 6.98107 6.36955 6.9677 6.39766 6.96167C6.42576 6.95564 6.45449 6.95707 6.48218 6.9659C6.50986 6.97472 6.53598 6.99075 6.55902 7.01308H6.56452C6.58799 7.03703 6.60763 7.06701 6.62228 7.10126C6.87716 7.54544 7.13082 7.99125 7.38325 8.43869C7.41728 8.48967 7.43547 8.55607 7.4341 8.62435C7.43274 8.69263 7.41193 8.75763 7.37592 8.80612L7.36583 8.81837C7.14029 9.11721 6.91475 9.41441 6.68921 9.70999C6.67235 9.73832 6.65147 9.76193 6.62775 9.77943C6.60404 9.79694 6.57796 9.808 6.55103 9.81199C6.5241 9.81597 6.49684 9.8128 6.47084 9.80265C6.44483 9.7925 6.42058 9.77558 6.39949 9.75285C6.05568 9.4136 5.71095 9.07434 5.37264 8.72528C5.32202 8.65255 5.27998 8.56996 5.24795 8.48034C5.27892 8.40742 5.3145 8.33817 5.3543 8.27335Z" fill="white"/>
<path d="M12.0426 5.00207C12.187 5.01258 12.3316 4.98308 12.4671 4.91542C12.6026 4.84777 12.7262 4.74342 12.8301 4.60892C12.9378 4.47587 13.0025 4.29219 13.0107 4.09661C13.0189 3.90103 12.97 3.70883 12.8741 3.56054C12.8604 3.53895 12.8457 3.5185 12.8301 3.4993C12.6148 3.24596 12.3377 3.1062 12.0508 3.1062C11.7639 3.1062 11.4868 3.24596 11.2715 3.4993C11.1636 3.6324 11.0987 3.81633 11.0905 4.01221C11.0823 4.20809 11.1314 4.40055 11.2275 4.54891C11.2497 4.58339 11.2742 4.61497 11.3009 4.64322C11.5049 4.88467 11.7701 5.01302 12.0426 5.00207Z" fill="white"/>
<path d="M8.50728 5.35608C8.65157 5.36611 8.79587 5.33639 8.9312 5.26876C9.06653 5.20113 9.18999 5.09702 9.29392 4.96293C9.40181 4.82983 9.46673 4.6459 9.47494 4.45002C9.48316 4.25414 9.43402 4.06168 9.33793 3.91332C9.3242 3.89212 9.3095 3.87208 9.29392 3.85331C9.07861 3.59997 8.80154 3.46021 8.51461 3.46021C8.22769 3.46021 7.95062 3.59997 7.73531 3.85331C7.62795 3.98631 7.56338 4.16974 7.55517 4.36503C7.54696 4.56032 7.59576 4.75225 7.6913 4.90047C7.71383 4.93569 7.73902 4.9677 7.76648 4.996C7.96982 5.23825 8.23495 5.36712 8.50728 5.35608Z" fill="white"/>
</svg>
