<svg fill="none" height="20" viewBox="0 0 20 20" width="20" xmlns="http://www.w3.org/2000/svg" xmlns:xlink="http://www.w3.org/1999/xlink"><clipPath id="a"><path d="m0 0h20v20h-20z"/></clipPath><g clip-path="url(#a)"><path d="m19.375 10c0 5.1797-4.1953 9.375-9.375 9.375-5.17969 0-9.375-4.1953-9.375-9.375 0-5.17969 4.19531-9.375 9.375-9.375 2.4844 0 4.8672.98437 6.6328 2.74219 1.7578 1.76562 2.7422 4.14843 2.7422 6.63281z" fill="#f3f3f1"/><path d="m15.2109 10c0 2.875-2.3281 5.2109-5.2109 5.2109-2.88281 0-5.21094-2.3359-5.21094-5.2109s2.33594-5.21094 5.21094-5.21094 5.2109 2.33594 5.2109 5.21094z" fill="#cf55c5"/><path d="m11.875 10c0 1.0391-.8359 1.875-1.875 1.875-1.03906 0-1.875-.8359-1.875-1.875 0-1.03906.83594-1.875 1.875-1.875 1.0391 0 1.875.83594 1.875 1.875z" fill="#f3f3f1"/><path d="m11.0234 11.0234 7.9532 2.6485-3.8282 1.4765-1.4765 3.8282z" fill="#cf55c5"/><path d="m6.66406 10c0-2.55469 1.84375-4.67969 4.27344-5.11719-.3047-.05469-.6172-.08593-.9375-.08593-2.875 0-5.21094 2.32812-5.21094 5.21092s2.32813 5.211 5.21094 5.211c.3203 0 .6328-.0313.9375-.086-2.42969-.4531-4.27344-2.5781-4.27344-5.1328z" fill="#963b8e"/><path d="m13.1328 11.7266-2.1094-.7032 2.6485 7.9532 1.0078-2.6094z" fill="#963b8e"/><path d="m2.5 10c0-4.85938 3.70312-8.85938 8.4375-9.328125-.3047-.03125-.6172-.046875-.9375-.046875-5.17969 0-9.375 4.19531-9.375 9.375 0 5.1797 4.19531 9.375 9.375 9.375.3203 0 .6328-.0156.9375-.0469-4.73438-.4687-8.4375-4.4687-8.4375-9.3281z" fill="#d5dbe1"/><path d="m10 10c0-.69531.3828-1.28906.9375-1.61719-.2734-.16406-.5937-.25781-.9375-.25781-1.03906 0-1.875.83594-1.875 1.875 0 1.0391.83594 1.875 1.875 1.875.3438 0 .6641-.1016.9375-.2578-.5547-.3281-.9375-.9219-.9375-1.6172z" fill="#d5dbe1"/><g fill="#262626"><path d="m13.6719 19.6016c-.0078 0-.0078 0-.0157 0-.2656-.0079-.4921-.1797-.5781-.4297l-2.6562-7.9532c-.0782-.2265-.0157-.4765.1484-.6406.1641-.164.4141-.2265.6406-.1484l7.9532 2.6484c.25.086.4218.3125.4296.5781.0079.2657-.1562.5-.3984.5938l-3.5703 1.375-1.375 3.5703c-.0859.25-.3203.4063-.5781.4063zm-1.6641-7.5938 1.7031 5.1172.8438-2.2031c.0625-.1641.1953-.2969.3594-.3594l2.2031-.8438z"/><path d="m10 20c-5.51562 0-10-4.4844-10-10 0-5.51562 4.48438-10 10-10 5.5156 0 10 4.48438 10 10 0 .4062-.0234.8203-.0781 1.2266l-1.2422-.1641c.0469-.3516.0703-.7031.0703-1.0625 0-4.82812-3.9219-8.75-8.75-8.75-4.82812 0-8.75 3.92188-8.75 8.75 0 4.8281 3.92188 8.75 8.75 8.75.3594 0 .7109-.0234 1.0625-.0703l.1641 1.2422c-.3985.0547-.8125.0781-1.2266.0781z"/><path d="m9.75 15.8281c-3.13281-.1328-5.58594-2.6875-5.58594-5.8281 0-3.21875 2.61719-5.83594 5.83594-5.83594 3.1328 0 5.6953 2.45313 5.8281 5.57813l-1.25.05469c-.1093-2.45313-2.1172-4.38282-4.5781-4.38282-2.52344 0-4.58594 2.05469-4.58594 4.58594 0 2.4609 1.92969 4.4688 4.38282 4.5781z"/><path d="m8.05469 11.5625c-.35938-.4453-.55469-1.0078-.55469-1.5625 0-1.375 1.125-2.5 2.5-2.5.5703 0 1.1094.1875 1.5625.55469l-.7734.97656c-.1641-.125-.4297-.28125-.7891-.28125-.6875 0-1.25.5625-1.25 1.25 0 .3594.15625.625.28125.7891z"/></g></g></svg>