<svg width="18" height="18" viewBox="0 0 18 18" fill="none" xmlns="http://www.w3.org/2000/svg">
<path fill-rule="evenodd" clip-rule="evenodd" d="M2.99249 12.6406L2.00699 15.2686C1.96914 15.3697 1.96121 15.4796 1.98414 15.5851C2.00706 15.6907 2.05988 15.7874 2.13627 15.8637C2.21267 15.94 2.30942 15.9927 2.41496 16.0155C2.52051 16.0383 2.63039 16.0303 2.73149 15.9923L5.35874 15.0068C5.65944 14.8942 5.93256 14.7185 6.15974 14.4916L13.77 6.88134C13.77 6.88134 13.5045 6.08559 12.7095 5.28984C11.9145 4.49484 11.118 4.22934 11.118 4.22934L3.50774 11.8396C3.2808 12.0668 3.10511 12.3399 2.99249 12.6406ZM12.1792 3.16809L13.2165 2.13084C13.4025 1.94484 13.6507 1.82634 13.9102 1.86984C14.2755 1.92984 14.8342 2.11134 15.3607 2.63859C15.888 3.16584 16.0695 3.72384 16.1295 4.08909C16.173 4.34859 16.0545 4.59684 15.8685 4.78284L14.8305 5.82009C14.8305 5.82009 14.5657 5.02509 13.77 4.23009C12.975 3.43359 12.1792 3.16809 12.1792 3.16809Z" fill="#272961"/>
</svg>
