<svg width="11" height="11" viewBox="0 0 11 11" fill="none" xmlns="http://www.w3.org/2000/svg">
<path d="M10 0H1C0.45 0 0 0.45 0 1V10C0 10.55 0.45 11 1 11H10C10.55 11 11 10.55 11 10V1C11 0.45 10.55 0 10 0ZM2 2.5C2 2.35 2.1 2.25 2.25 2.25H4.75C4.9 2.25 5 2.35 5 2.5V5C5 5.15 4.9 5.25 4.75 5.25H2.25C2.1 5.25 2 5.15 2 5V2.5ZM8 9C8 9.15 7.9 9.25 7.75 9.25H2.25C2.1 9.25 2 9.15 2 9V8.5C2 8.35 2.1 8.25 2.25 8.25H7.75C7.9 8.25 8 8.35 8 8.5V9ZM9 7C9 7.15 8.9 7.25 8.75 7.25H2.25C2.1 7.25 2 7.15 2 7V6.5C2 6.35 2.1 6.25 2.25 6.25H8.75C8.9 6.25 9 6.35 9 6.5V7ZM9 5C9 5.15 8.9 5.25 8.75 5.25H6.25C6.1 5.25 6 5.15 6 5V4.5C6 4.35 6.1 4.25 6.25 4.25H8.75C8.9 4.25 9 4.35 9 4.5V5ZM9 3C9 3.15 8.9 3.25 8.75 3.25H6.25C6.1 3.25 6 3.15 6 3V2.5C6 2.35 6.1 2.25 6.25 2.25H8.75C8.9 2.25 9 2.35 9 2.5V3Z" fill="black"/>
</svg>
