<svg width="24" height="23" viewBox="0 0 24 23" fill="none" xmlns="http://www.w3.org/2000/svg">
<path d="M16 7.66675C15.7348 7.66675 15.4804 7.56578 15.2929 7.38606C15.1054 7.20634 15 6.96258 15 6.70841V3.83341H9V6.70841C9 6.96258 8.89464 7.20634 8.70711 7.38606C8.51957 7.56578 8.26522 7.66675 8 7.66675C7.73478 7.66675 7.48043 7.56578 7.29289 7.38606C7.10536 7.20634 7 6.96258 7 6.70841V3.83341C7 3.32508 7.21071 2.83757 7.58579 2.47813C7.96086 2.11868 8.46957 1.91675 9 1.91675H15C15.5304 1.91675 16.0391 2.11868 16.4142 2.47813C16.7893 2.83757 17 3.32508 17 3.83341V6.70841C17 6.96258 16.8946 7.20634 16.7071 7.38606C16.5196 7.56578 16.2652 7.66675 16 7.66675Z" fill="white"/>
<path d="M20 5.75H4C3.73478 5.75 3.48043 5.85097 3.29289 6.03069C3.10536 6.21041 3 6.45417 3 6.70833C3 6.9625 3.10536 7.20625 3.29289 7.38598C3.48043 7.5657 3.73478 7.66667 4 7.66667H5V19.1667C5 19.675 5.21071 20.1625 5.58579 20.522C5.96086 20.8814 6.46957 21.0833 7 21.0833H17C17.5304 21.0833 18.0391 20.8814 18.4142 20.522C18.7893 20.1625 19 19.675 19 19.1667V7.66667H20C20.2652 7.66667 20.5196 7.5657 20.7071 7.38598C20.8946 7.20625 21 6.9625 21 6.70833C21 6.45417 20.8946 6.21041 20.7071 6.03069C20.5196 5.85097 20.2652 5.75 20 5.75Z" fill="white"/>
<path d="M10 17.2499C9.73478 17.2499 9.48043 17.149 9.29289 16.9692C9.10536 16.7895 9 16.5458 9 16.2916V10.5416C9 10.2874 9.10536 10.0437 9.29289 9.86394C9.48043 9.68422 9.73478 9.58325 10 9.58325C10.2652 9.58325 10.5196 9.68422 10.7071 9.86394C10.8946 10.0437 11 10.2874 11 10.5416V16.2916C11 16.5458 10.8946 16.7895 10.7071 16.9692C10.5196 17.149 10.2652 17.2499 10 17.2499ZM15 16.2916V10.5416C15 10.2874 14.8946 10.0437 14.7071 9.86394C14.5196 9.68422 14.2652 9.58325 14 9.58325C13.7348 9.58325 13.4804 9.68422 13.2929 9.86394C13.1054 10.0437 13 10.2874 13 10.5416V16.2916C13 16.5458 13.1054 16.7895 13.2929 16.9692C13.4804 17.149 13.7348 17.2499 14 17.2499C14.2652 17.2499 14.5196 17.149 14.7071 16.9692C14.8946 16.7895 15 16.5458 15 16.2916Z" fill="#FF5833"/>
</svg>
