<svg width="18" height="11" viewBox="0 0 18 11" fill="none" xmlns="http://www.w3.org/2000/svg">
<path d="M17.2061 5.53504C16.7558 6.54362 16.1254 7.44417 15.3149 8.20063C14.5224 8.95709 13.5678 9.56943 12.5232 10.0017C11.4785 10.434 10.3079 10.6681 9.10109 10.6681C7.89433 10.6681 6.72358 10.4339 5.67901 10.0017C4.63437 9.56943 3.67979 8.95709 2.88728 8.20063C2.09476 7.44417 1.44637 6.54362 0.996094 5.53504C1.44637 4.52646 2.07682 3.62591 2.88728 2.86945C3.69774 2.11299 4.63434 1.50065 5.67901 1.06835C6.72365 0.636056 7.89433 0.401978 9.10109 0.401978C10.3079 0.401978 11.4786 0.636159 12.5232 1.06835C13.5678 1.50065 14.5224 2.11299 15.3149 2.86945C16.1254 3.62591 16.7558 4.52646 17.2061 5.53504ZM9.10116 1.42854C6.83181 1.42854 4.99466 3.26569 4.99466 5.53504C4.99466 7.80439 6.83181 9.64154 9.10116 9.64154C11.3705 9.64154 13.2077 7.80439 13.2077 5.53504C13.2077 3.26569 11.3705 1.42854 9.10116 1.42854Z" fill="#677294"/>
<path d="M11.4245 5.53502C11.4245 6.81386 10.3799 7.85837 9.10118 7.85837C7.82234 7.85837 6.77783 6.81383 6.77783 5.53502C6.77783 4.25621 7.82237 3.21167 9.10118 3.21167C10.38 3.21167 11.4245 4.25621 11.4245 5.53502ZM8.39875 4.04011C8.07462 4.04011 7.82234 4.29226 7.82234 4.61653C7.82234 4.94066 8.07449 5.19294 8.39875 5.19294C8.72289 5.19294 8.97517 4.94079 8.97517 4.61653C8.97504 4.29226 8.72289 4.04011 8.39875 4.04011V4.04011Z" fill="#677294"/>
</svg>
