<svg width="22" height="22" viewBox="0 0 22 22" fill="none" xmlns="http://www.w3.org/2000/svg">
<path fill-rule="evenodd" clip-rule="evenodd" d="M2.3225 16.2585L0.899 20.0545C0.844339 20.2006 0.832881 20.3593 0.865996 20.5117C0.89911 20.6642 0.975398 20.8038 1.08575 20.9141C1.1961 21.0243 1.33584 21.1004 1.4883 21.1334C1.64075 21.1663 1.79947 21.1547 1.9455 21.0999L5.74042 19.6764C6.17477 19.5137 6.56928 19.26 6.89742 18.9322L17.89 7.93958C17.89 7.93958 17.5065 6.79017 16.3582 5.64075C15.2098 4.49242 14.0593 4.10892 14.0593 4.10892L3.06675 15.1015C2.73895 15.4296 2.48518 15.8241 2.3225 16.2585ZM15.5923 2.576L17.0905 1.07775C17.3592 0.809083 17.7178 0.637916 18.0926 0.700749C18.6202 0.787416 19.4273 1.04958 20.1878 1.81117C20.9493 2.57275 21.2115 3.37875 21.2982 3.90633C21.361 4.28117 21.1898 4.63975 20.9212 4.90842L19.4218 6.40667C19.4218 6.40667 19.0394 5.25833 17.89 4.11C16.7417 2.9595 15.5923 2.576 15.5923 2.576Z" fill="#272961"/>
</svg>
