<svg width="26" height="24" viewBox="0 0 26 24" fill="none" xmlns="http://www.w3.org/2000/svg">
<path d="M10.6012 23.5425C10.4112 23.5425 10.2212 23.495 10.0787 23.4C9.79375 23.21 9.60375 22.8775 9.60375 22.545V12.19L0.72125 2.12C0.48375 1.835 0.38875 1.4075 0.57875 1.075C0.76875 0.742505 1.10125 0.505005 1.48125 0.505005H24.9938C25.3738 0.505005 25.7538 0.742505 25.8963 1.075C26.0388 1.455 25.9913 1.835 25.7538 2.1675L16.4913 12.6175V20.1225C16.4913 20.5025 16.2537 20.835 15.9213 21.025L11.0763 23.4C10.9812 23.495 10.7912 23.5425 10.6012 23.5425ZM3.66625 2.4525L11.3612 11.145C11.5037 11.335 11.5988 11.5725 11.5988 11.81V20.8825L14.4488 19.4575V12.2375C14.4488 12 14.5437 11.7625 14.6862 11.5725L22.7613 2.4525C22.8088 2.4525 3.66625 2.4525 3.66625 2.4525Z" fill="url(#paint0_linear_54_350)"/>
<defs>
<linearGradient id="paint0_linear_54_350" x1="0.477675" y1="11.8285" x2="25.9764" y2="11.8285" gradientUnits="userSpaceOnUse">
<stop stop-color="#C320D9"/>
<stop offset="1" stop-color="#F67952"/>
</linearGradient>
</defs>
</svg>
