<svg width="23" height="23" viewBox="0 0 23 23" fill="none" xmlns="http://www.w3.org/2000/svg">
<path d="M22.6316 10.3955L11.9941 0.198242C11.7156 -0.0712891 11.2754 -0.0712891 10.9969 0.198242L0.350391 10.4045C0.125781 10.6291 0 10.9436 0 11.258C0 11.9229 0.539062 12.4529 1.19492 12.4529H2.875V21.3205C2.875 22.2459 3.62969 23.0006 4.55508 23.0006H8.39141H14.6176H18.4539C19.3793 23.0006 20.134 22.2459 20.134 21.3205V12.4529H21.8141C22.4699 12.4529 23.009 11.9139 23.009 11.258C23 10.9436 22.8742 10.6381 22.6316 10.3955ZM19.4062 11.0244C19.0109 11.0244 18.6875 11.3479 18.6875 11.7432V21.3295C18.6875 21.4643 18.5797 21.5721 18.4449 21.5721H15.3273V18.6971H13.8898V21.5721H9.10117V16.0647C9.10117 15.9299 9.20898 15.8221 9.34375 15.8221H13.6562C13.791 15.8221 13.8988 15.9299 13.8988 16.0647V17.2506H15.3363V16.0557C15.3363 15.1303 14.5816 14.3756 13.6562 14.3756H9.34375C8.41836 14.3756 7.66367 15.1303 7.66367 16.0557V21.5631H4.55508C4.42031 21.5631 4.3125 21.4553 4.3125 21.3205V11.7432C4.3125 11.3479 3.98906 11.0244 3.59375 11.0244H1.78789L11.5 1.7166L21.2121 11.0244H19.4062Z" fill="#BDBDBD"/>
</svg>
