<svg width="33" height="33" viewBox="0 0 33 33" fill="none" xmlns="http://www.w3.org/2000/svg">
<g clip-path="url(#clip0_10_4551)">
<path d="M22.7257 4.64061H18.0335C17.1966 4.6284 17.2219 5.8375 18.0335 5.8375H22.713V6.43594H18.0589C17.2092 6.43594 17.2346 7.63283 18.0589 7.63283H22.7257V8.23127V8.2557H18.0589C17.2092 8.2557 17.2346 9.4648 18.0589 9.4648H22.7257V10.0632H18.0589C17.2219 10.0632 17.2346 11.2601 18.0589 11.2601H22.7257V11.8586H18.0589C17.2219 11.8586 17.2219 13.0677 18.0589 13.0555H22.7257V13.6661H18.0589C17.2219 13.6539 17.2219 14.863 18.0589 14.863H22.7257V15.4614H18.0589C17.2219 15.4614 17.2219 16.6583 18.0589 16.6583H22.7257V17.2568H18.0589C17.2219 17.2568 17.2346 18.4659 18.0589 18.4659H22.7257V30.1294C22.713 31.9125 25.541 31.8881 25.541 30.1294V2.84528C25.541 2.03922 24.8435 1.01331 23.6895 1.01331L18.0335 1.0011C17.1966 1.01331 17.2219 2.2102 18.0335 2.2102H22.713V2.80864H18.0335C17.1966 2.80864 17.2219 4.01774 18.0335 4.00553H22.713V4.64061H22.7257Z" fill="white"/>
<path d="M17.3107 28.2119C17.1458 29.2012 17.5009 30.9721 18.2238 31.6194C18.9847 32.2911 19.885 31.4362 19.5173 30.7401C19.1368 30.0561 18.6676 29.6775 19.0607 28.041L17.3107 28.2119Z" fill="white"/>
<path d="M15.8143 22.4596V14.5088L14.2545 1.42856C14.2037 1.07438 13.9882 0.988892 13.7726 0.988892C13.5697 0.988892 13.3414 1.06217 13.3034 1.42856L11.7816 14.5088V22.4596C8.9029 21.0184 6.74706 23.2656 6.73438 25.3052C6.74706 27.125 8.14201 28.6272 10.133 28.6272C12.124 28.615 13.4809 26.9418 13.4809 25.3052V17.3179H14.115V25.3052C14.115 27.1983 15.7128 28.6028 17.4121 28.6028C19.5553 28.6028 20.9122 27.1494 20.9122 25.3175C20.9249 23.2534 18.693 21.0184 15.8143 22.4596ZM10.095 26.9662C9.15653 26.9662 8.40833 26.2334 8.39564 25.3297C8.40833 24.4381 9.15653 23.7053 10.095 23.7053C11.0334 23.7053 11.7943 24.4259 11.7943 25.3297C11.7943 26.2334 11.0334 26.9662 10.095 26.9662ZM17.5516 26.9662C16.6259 26.9662 15.865 26.2334 15.865 25.3297C15.865 24.4381 16.6132 23.7053 17.5516 23.7053C18.4901 23.7053 19.251 24.4259 19.251 25.3297C19.251 26.2334 18.5028 26.9662 17.5516 26.9662Z" fill="white"/>
</g>
<defs>
<clipPath id="clip0_10_4551">
<rect width="32.4645" height="31.2656" fill="white" transform="translate(0.000488281 0.78125)"/>
</clipPath>
</defs>
</svg>
