<svg width="27" height="23" viewBox="0 0 27 23" fill="none" xmlns="http://www.w3.org/2000/svg">
<path d="M23.7353 6.69458H12.7805C11.9738 6.69553 11.2003 7.01643 10.6299 7.58689C10.0594 8.15736 9.73849 8.9308 9.73755 9.73756V17.0407C9.73849 17.8475 10.0594 18.6209 10.6299 19.1914C11.2003 19.7618 11.9738 20.0827 12.7805 20.0837H18.9187L21.5687 22.7333C21.6964 22.8607 21.859 22.9475 22.0359 22.9826C22.2129 23.0177 22.3963 22.9996 22.563 22.9305C22.7297 22.8615 22.8722 22.7446 22.9725 22.5947C23.0728 22.4447 23.1265 22.2684 23.1267 22.088V20.0837H23.7353C24.542 20.0827 25.3155 19.7618 25.8859 19.1914C26.4564 18.6209 26.7773 17.8475 26.7782 17.0407V9.73756C26.7773 8.9308 26.4564 8.15736 25.8859 7.58689C25.3155 7.01643 24.542 6.69553 23.7353 6.69458ZM21.3009 12.4761H20.9607C20.82 13.7328 20.2477 14.9018 19.3414 15.7836C19.8644 16.0084 20.4274 16.1254 20.9967 16.1277C21.1604 16.1269 21.3178 16.1901 21.4355 16.3038C21.5532 16.4175 21.6218 16.5727 21.6268 16.7363C21.6292 16.815 21.6159 16.8935 21.5876 16.967C21.5592 17.0405 21.5164 17.1076 21.4617 17.1644C21.407 17.2211 21.3415 17.2663 21.2691 17.2973C21.1966 17.3283 21.1187 17.3445 21.0399 17.3448C20.0671 17.3427 19.112 17.0853 18.2699 16.5983C17.4357 17.0873 16.4863 17.345 15.5194 17.3448C15.3557 17.3458 15.1981 17.2826 15.0803 17.1689C14.9625 17.0552 14.8939 16.8999 14.889 16.7363C14.8866 16.6575 14.8999 16.579 14.9282 16.5055C14.9566 16.432 14.9994 16.3649 15.0541 16.3081C15.1088 16.2514 15.1743 16.2062 15.2467 16.1752C15.3192 16.1442 15.3971 16.128 15.4759 16.1277C16.0639 16.1284 16.646 16.0096 17.1868 15.7787C16.7152 15.3297 16.3286 14.7993 16.0455 14.2129C16.0094 14.1405 15.9882 14.0617 15.9829 13.9809C15.9777 13.9002 15.9886 13.8192 16.015 13.7428C16.0414 13.6663 16.0828 13.5959 16.1368 13.5356C16.1907 13.4754 16.2562 13.4264 16.3292 13.3917C16.4023 13.3571 16.4816 13.3373 16.5624 13.3336C16.6432 13.3299 16.7239 13.3423 16.7999 13.3702C16.8758 13.398 16.9454 13.4408 17.0047 13.4958C17.0639 13.5509 17.1116 13.6173 17.1449 13.691C17.4074 14.2425 17.7858 14.7309 18.2543 15.1227C19.0559 14.4527 19.5817 13.5101 19.7309 12.4761H15.2149C15.0535 12.4761 14.8987 12.412 14.7846 12.2978C14.6704 12.1837 14.6063 12.0289 14.6063 11.8675C14.6063 11.7061 14.6704 11.5513 14.7846 11.4371C14.8987 11.323 15.0535 11.2589 15.2149 11.2589H17.6493V10.0417C17.6493 9.88029 17.7134 9.72549 17.8276 9.61135C17.9417 9.49722 18.0965 9.4331 18.2579 9.4331C18.4193 9.4331 18.5741 9.49722 18.6882 9.61135C18.8024 9.72549 18.8665 9.88029 18.8665 10.0417V11.2589H21.3009C21.4623 11.2589 21.6171 11.323 21.7312 11.4371C21.8453 11.5513 21.9095 11.7061 21.9095 11.8675C21.9095 12.0289 21.8453 12.1837 21.7312 12.2978C21.6171 12.412 21.4623 12.4761 21.3009 12.4761Z" fill="#272961"/>
<path d="M8.52033 5.12256L7.52905 7.30312H9.2896C9.33374 7.24015 9.38016 7.17913 9.42755 7.11843L8.52033 5.12256Z" fill="#272961"/>
<path d="M13.9977 0H3.04298C2.23622 0.000944934 1.46278 0.321847 0.892312 0.892312C0.321847 1.46278 0.000944934 2.23622 0 3.04298V10.3461C0.000944934 11.1529 0.321847 11.9263 0.892312 12.4968C1.46278 13.0673 2.23622 13.3882 3.04298 13.3891H3.65158V15.3931C3.65141 15.5737 3.70483 15.7502 3.80507 15.9005C3.90532 16.0507 4.04788 16.1677 4.2147 16.2369C4.38153 16.306 4.56512 16.3241 4.74222 16.2888C4.91932 16.2535 5.08198 16.1665 5.20958 16.0387L7.85949 13.3891H8.52034V9.73754C8.52063 9.32523 8.5811 8.91518 8.69984 8.52034H6.97565L6.03143 10.5977C5.96463 10.7446 5.84219 10.859 5.69104 10.9157C5.5399 10.9724 5.37243 10.9667 5.22549 10.8999C5.07854 10.8331 4.96415 10.7106 4.90748 10.5595C4.8508 10.4083 4.8565 10.2409 4.9233 10.0939L7.96628 3.39937C8.01463 3.29298 8.09258 3.20276 8.19084 3.13949C8.28909 3.07622 8.40348 3.04257 8.52034 3.04257C8.63721 3.04257 8.7516 3.07622 8.84985 3.13949C8.9481 3.20276 9.02606 3.29298 9.07441 3.39937L10.3627 6.23365C11.0726 5.74042 11.9164 5.47628 12.7808 5.47672H17.0407V3.04233C17.0396 2.23568 16.7186 1.46241 16.1481 0.892082C15.5777 0.321757 14.8044 0.000944583 13.9977 0Z" fill="#272961"/>
</svg>
