<svg width="18" height="18" viewBox="0 0 18 18" fill="none" xmlns="http://www.w3.org/2000/svg">
<path fill-rule="evenodd" clip-rule="evenodd" d="M16.4149 1.58515C14.3014 -0.528383 10.8745 -0.528383 8.76096 1.58515L6.449 3.89711L7.72448 5.17263L10.0364 2.86066C11.4464 1.45074 13.7286 1.45074 15.1394 2.86066C16.5457 4.26788 16.5457 6.55637 15.1394 7.96359L12.8274 10.2758L14.1029 11.5513L16.4149 9.2391C18.5284 7.12557 18.5284 3.69868 16.4149 1.58515ZM7.96355 15.1388C7.2825 15.8207 6.37594 16.1959 5.41255 16.1959C4.44916 16.1959 3.54257 15.8207 2.86152 15.1388C1.45432 13.7324 1.45432 11.443 2.86152 10.0367L5.17349 7.72453L3.89709 6.44814L1.58513 8.7601C-0.528377 10.8736 -0.528377 14.3007 1.58513 16.4152C2.64234 17.4715 4.027 18 5.41255 18C6.7981 18 8.18273 17.4715 9.23994 16.4152L11.5519 14.1032L10.2755 12.8268L7.96355 15.1388ZM11.0368 5.68788L12.3123 6.9634L6.94962 12.326L5.67413 11.0505L11.0368 5.68788Z" fill="#272961"/>
</svg>
