<svg width="21" height="21" viewBox="0 0 21 21" fill="none" xmlns="http://www.w3.org/2000/svg">
<path fill-rule="evenodd" clip-rule="evenodd" d="M3.79166 2.83341C3.26239 2.83341 2.83332 3.26248 2.83332 3.79175V17.2084C2.83332 17.7377 3.26239 18.1667 3.79166 18.1667H10.5H11.4583C11.9876 18.1667 12.4167 17.7377 12.4167 17.2084V3.79175C12.4167 3.26248 11.9876 2.83341 11.4583 2.83341H3.79166ZM3.79166 20.0834H10.5H11.4583H17.2083C18.7962 20.0834 20.0833 18.7963 20.0833 17.2084V7.62508C20.0833 6.03727 18.7962 4.75008 17.2083 4.75008H14.3333V3.79175C14.3333 2.20393 13.0462 0.916748 11.4583 0.916748H3.79166C2.20384 0.916748 0.916656 2.20393 0.916656 3.79175V17.2084C0.916656 18.7963 2.20384 20.0834 3.79166 20.0834ZM17.2083 18.1667H14.1697C14.2756 17.867 14.3333 17.5444 14.3333 17.2084V6.66675H17.2083C17.7376 6.66675 18.1667 7.09581 18.1667 7.62508V17.2084C18.1667 17.7377 17.7376 18.1667 17.2083 18.1667ZM5.70832 12.4167H3.79166V14.3334H5.70832V12.4167ZM6.66666 12.4167H8.58332V14.3334H6.66666V12.4167ZM11.4583 12.4167H9.54166V14.3334H11.4583V12.4167ZM15.2917 12.4167H17.2083V14.3334H15.2917V12.4167ZM17.2083 8.58341H15.2917V10.5001H17.2083V8.58341ZM3.79166 8.58341H5.70832V10.5001H3.79166V8.58341ZM8.58332 8.58341H6.66666V10.5001H8.58332V8.58341ZM9.54166 8.58341H11.4583V10.5001H9.54166V8.58341ZM5.70832 4.75008H3.79166V6.66675H5.70832V4.75008ZM6.66666 4.75008H8.58332V6.66675H6.66666V4.75008ZM11.4583 4.75008H9.54166V6.66675H11.4583V4.75008Z" fill="#BDBDBD"/>
</svg>
