<svg width="6" height="22" viewBox="0 0 6 22" fill="none" xmlns="http://www.w3.org/2000/svg">
<path d="M5.4375 18.6875C5.4375 19.334 5.18069 19.954 4.72357 20.4111C4.26645 20.8682 3.64647 21.125 3 21.125C2.35353 21.125 1.73355 20.8682 1.27643 20.4111C0.819307 19.954 0.5625 19.334 0.5625 18.6875C0.5625 18.041 0.819307 17.421 1.27643 16.9639C1.73355 16.5068 2.35353 16.25 3 16.25C3.64647 16.25 4.26645 16.5068 4.72357 16.9639C5.18069 17.421 5.4375 18.041 5.4375 18.6875ZM5.4375 10.5625C5.4375 11.209 5.18069 11.829 4.72357 12.2861C4.26645 12.7432 3.64647 13 3 13C2.35353 13 1.73355 12.7432 1.27643 12.2861C0.819307 11.829 0.5625 11.209 0.5625 10.5625C0.5625 9.91603 0.819307 9.29605 1.27643 8.83893C1.73355 8.38181 2.35353 8.125 3 8.125C3.64647 8.125 4.26645 8.38181 4.72357 8.83893C5.18069 9.29605 5.4375 9.91603 5.4375 10.5625ZM5.4375 2.4375C5.4375 3.08397 5.18069 3.70395 4.72357 4.16107C4.26645 4.61819 3.64647 4.875 3 4.875C2.35353 4.875 1.73355 4.61819 1.27643 4.16107C0.819307 3.70395 0.5625 3.08397 0.5625 2.4375C0.5625 1.79103 0.819307 1.17105 1.27643 0.713927C1.73355 0.256807 2.35353 0 3 0C3.64647 0 4.26645 0.256807 4.72357 0.713927C5.18069 1.17105 5.4375 1.79103 5.4375 2.4375Z" fill="#272961"/>
</svg>
