<svg width="28" height="28" viewBox="0 0 28 28" fill="none" xmlns="http://www.w3.org/2000/svg">
<path d="M25.6667 10.5V17.5C25.6667 20.4167 25.0833 22.4583 23.7767 23.7767L16.3333 16.3333L25.3517 7.31503C25.5617 8.2367 25.6667 9.2867 25.6667 10.5Z" stroke="white" stroke-linecap="round" stroke-linejoin="round"/>
<path d="M25.3517 7.31501L7.31499 25.3517C3.80332 24.5467 2.33333 22.12 2.33333 17.5V10.5C2.33333 4.66668 4.66667 2.33334 10.5 2.33334H17.5C22.12 2.33334 24.5467 3.80334 25.3517 7.31501Z" stroke="white" stroke-linecap="round" stroke-linejoin="round"/>
<path d="M23.7767 23.7767C22.4583 25.0833 20.4167 25.6667 17.5 25.6667H10.5C9.2867 25.6667 8.23669 25.5617 7.31502 25.3517L16.3333 16.3333L23.7767 23.7767Z" stroke="white" stroke-linecap="round" stroke-linejoin="round"/>
<path d="M7.28002 9.30997C8.07336 5.89163 13.2067 5.89163 14 9.30997C14.455 11.3166 13.195 13.02 12.0867 14.07C11.2817 14.84 10.01 14.84 9.19337 14.07C8.08504 13.02 6.81336 11.3166 7.28002 9.30997Z" stroke="white"/>
<path d="M10.6104 10.1499H10.622" stroke="white" stroke-linecap="round" stroke-linejoin="round"/>
</svg>
