<svg fill="none" height="23" viewBox="0 0 20 23" width="20" xmlns="http://www.w3.org/2000/svg"><path d="m19.1698 16.981c-1.4932-1.2612-2.3557-3.1161-2.3557-5.0729v-2.75447c0-3.57057-2.708-6.51048-6.1859-6.88145v-2.27218h-1.48384v2.2629c-3.46855.37097-6.17662 3.32016-6.17662 6.89073v2.75447c0 1.9568-.85322 3.8024-2.364917 5.0729-.389516.3339-.602823.8069-.602823 1.317 0 .9552.779033 1.7343 1.73428 1.7343h4.52581c.34314 1.6879 1.84556 2.9677 3.63548 2.9677 1.78993 0 3.29233-1.2798 3.63553-2.9677h4.5258c.9552 0 1.7342-.7791 1.7342-1.7343-.0092-.5008-.2225-.9831-.6213-1.317zm-9.27423 4.5351c-.96451 0-1.78992-.6213-2.09597-1.4838h4.2012c-.3153.8625-1.1407 1.4838-2.10523 1.4838zm8.16133-2.9677h-16.32262c-.12984 0-.25041-.1113-.25041-.2504 0-.102.05565-.1577.09274-.1855 1.82702-1.5488 2.87501-3.8117 2.87501-6.2044v-2.75447c0-3.00484 2.43911-5.44395 5.44395-5.44395 3.00483 0 5.44393 2.43911 5.44393 5.44395v2.75447c0 2.3927 1.048 4.6556 2.8843 6.2044.0371.0278.0835.0927.0835.1855-.0093.1391-.1206.2504-.2504.2504z" fill="#bdbdbd"/></svg>