<svg width="20" height="23" viewBox="0 0 20 23" fill="none" xmlns="http://www.w3.org/2000/svg">
<g clip-path="url(#clip0_11_128)">
<path d="M6.92783 19.2903C6.92783 20.9318 8.25404 22.258 9.89557 22.258C11.5371 22.258 12.8633 20.9318 12.8633 19.2903H6.92783Z" fill="#FF5833"/>
<path d="M19.1698 16.981C17.6766 15.7198 16.8141 13.8649 16.8141 11.9081V9.15363C16.8141 5.58306 14.1061 2.64315 10.6282 2.27218V0H9.14436V2.2629C5.67581 2.63387 2.96774 5.58306 2.96774 9.15363V11.9081C2.96774 13.8649 2.11452 15.7105 0.602823 16.981C0.213307 17.3149 0 17.7879 0 18.298C0 19.2532 0.779033 20.0323 1.73428 20.0323H6.26009C6.60323 21.7202 8.10565 23 9.89557 23C11.6855 23 13.1879 21.7202 13.5311 20.0323H18.0569C19.0121 20.0323 19.7911 19.2532 19.7911 18.298C19.7819 17.7972 19.5686 17.3149 19.1698 16.981ZM9.89557 21.5161C8.93105 21.5161 8.10565 20.8948 7.7996 20.0323H12.0008C11.6855 20.8948 10.8601 21.5161 9.89557 21.5161ZM18.0569 18.5484H1.73428C1.60444 18.5484 1.48387 18.4371 1.48387 18.298C1.48387 18.196 1.53952 18.1403 1.57661 18.1125C3.40363 16.5637 4.45162 14.3008 4.45162 11.9081V9.15363C4.45162 6.14879 6.89073 3.70968 9.89557 3.70968C12.9004 3.70968 15.3395 6.14879 15.3395 9.15363V11.9081C15.3395 14.3008 16.3875 16.5637 18.2238 18.1125C18.2609 18.1403 18.3073 18.2052 18.3073 18.298C18.298 18.4371 18.1867 18.5484 18.0569 18.5484Z" fill="#272961"/>
</g>
<defs>
<clipPath id="clip0_11_128">
<rect width="19.7819" height="23" fill="white"/>
</clipPath>
</defs>
</svg>
