<svg width="18" height="10" viewBox="0 0 18 10" fill="none" xmlns="http://www.w3.org/2000/svg">
<path d="M9.16158 9.67746C9.51557 9.64334 9.85032 9.50035 10.1197 9.26844L17.3547 3.06704C17.7188 2.77529 17.9488 2.34822 17.9925 1.88373C18.036 1.41919 17.8894 0.956844 17.5859 0.602601C17.2826 0.248131 16.8483 0.0318449 16.3828 0.00324342C15.9171 -0.0253544 15.4597 0.136143 15.1151 0.450717L9 5.69404L2.88485 0.450717C2.54023 0.136137 2.08292 -0.0253581 1.6172 0.00324342C1.1517 0.0318412 0.717439 0.248131 0.414137 0.602601C0.110613 0.956832 -0.035981 1.41918 0.00751491 1.88373C0.0512532 2.34827 0.281238 2.77531 0.645312 3.06704L7.88028 9.26844C8.23427 9.57269 8.69667 9.72025 9.16141 9.67746H9.16158Z" fill="#DD88CF"/>
</svg>
