<svg width="34" height="34" viewBox="0 0 34 34" fill="none" xmlns="http://www.w3.org/2000/svg">
<g clip-path="url(#clip0_10_1668)">
<path d="M21.1718 33.1053H26.5401V23.5651C26.5401 23.2408 26.2717 22.9724 25.9474 22.9724H21.7757C21.4514 22.9724 21.1829 23.2408 21.1829 23.5651V33.1053H21.1718Z" fill="#F3F3F1"/>
<path d="M12.2244 18.1967C11.9 18.1967 11.6316 18.4651 11.6316 18.7895V33.1053H17V18.7895C17 18.4651 16.7316 18.1967 16.4072 18.1967H12.2244Z" fill="#F3F3F1"/>
<path d="M2.09143 33.1053H7.45986V14.0138C7.45986 13.6895 7.19143 13.421 6.86709 13.421H2.68419C2.35985 13.421 2.09143 13.6895 2.09143 14.0138V33.1053Z" fill="#F3F3F1"/>
<path d="M24.4598 22.9612H21.7756C21.4513 22.9612 21.1829 23.2296 21.1829 23.5539V33.1053H23.8671V23.5651C23.8559 23.2296 24.1243 22.9612 24.4598 22.9612Z" fill="#D5DBE1"/>
<path d="M14.9086 18.1967H12.2244C11.9 18.1967 11.6316 18.4651 11.6316 18.7895V33.1053H14.3158V18.7895C14.3158 18.4651 14.5842 18.1967 14.9086 18.1967Z" fill="#D5DBE1"/>
<path d="M5.3684 13.421H2.68419C2.35985 13.421 2.09143 13.6895 2.09143 14.0138V33.1053H4.77564V14.0138C4.77564 13.6895 5.04406 13.421 5.3684 13.421Z" fill="#D5DBE1"/>
<path d="M28.6316 32.2105H0V34H28.6316V32.2105Z" fill="#262626"/>
<path d="M26.5401 34H21.1717C20.6796 34 20.277 33.5974 20.277 33.1053V23.5651C20.277 22.7375 20.948 22.0776 21.7645 22.0776H25.9474C26.7638 22.0776 27.4349 22.7487 27.4349 23.5651V33.1053C27.4349 33.5974 27.0322 34 26.5401 34ZM22.0665 32.2105H25.6454V23.8559H22.0665V32.2105Z" fill="#262626"/>
<path d="M17 34H11.6316C11.1394 34 10.7368 33.5974 10.7368 33.1053V18.7895C10.7368 17.973 11.4079 17.302 12.2243 17.302H15.2552V19.0914H12.5263V32.2105H16.1052V20.6908H17.8947V33.1053C17.8947 33.5974 17.4921 34 17 34Z" fill="#262626"/>
<path d="M7.45981 34H2.09139C1.59929 34 1.19666 33.5974 1.19666 33.1053V14.0138C1.19666 13.1974 1.86771 12.5263 2.68415 12.5263H6.85586C7.68349 12.5263 8.34336 13.1974 8.34336 14.0138V33.1053C8.35455 33.5974 7.95192 34 7.45981 34ZM2.98613 32.2105H6.56507V14.3158H2.98613V32.2105Z" fill="#262626"/>
<path d="M33.9999 10.1441C33.9999 15.7474 29.4592 20.2882 23.8559 20.2882C18.2526 20.2882 13.7118 15.7474 13.7118 10.1441C13.7118 4.54079 18.2638 0 23.8559 0C29.448 0 33.9999 4.54079 33.9999 10.1441Z" fill="#CF55C5"/>
<path d="M17.369 10.1447C17.369 5.16776 20.9592 1.04079 25.6789 0.179604C25.0861 0.0677619 24.4822 0.0118408 23.8559 0.0118408C18.2526 0.0118408 13.7118 4.55263 13.7118 10.1559C13.7118 15.7592 18.2526 20.3 23.8559 20.3C24.4822 20.3 25.0861 20.2329 25.6789 20.1322C20.9592 19.2487 17.369 15.1217 17.369 10.1447Z" fill="#963B8E"/>
<path d="M23.8559 20.277C18.2638 20.277 13.7118 15.725 13.7118 10.1329C13.7118 4.54079 18.2749 0 23.8559 0C29.4368 0 33.9999 4.55197 33.9999 10.1441C33.9999 15.7362 29.448 20.277 23.8559 20.277ZM23.8559 1.78947C19.248 1.78947 15.5013 5.53618 15.5013 10.1441C15.5013 14.752 19.248 18.4987 23.8559 18.4987C28.4638 18.4987 32.2105 14.752 32.2105 10.1441C32.2105 5.53618 28.4638 1.78947 23.8559 1.78947Z" fill="#262626"/>
<path d="M24.3144 14.3158H21.7756V12.5263H24.3144C24.717 12.5263 25.0526 12.1908 25.0526 11.7882C25.0526 11.3632 24.717 11.0388 24.3144 11.0388H23.4085C22.0105 11.0388 20.8809 9.90922 20.8809 8.5112C20.8809 7.10199 22.0105 5.97238 23.4085 5.97238H25.9473V7.76186H23.4085C23.0059 7.76186 22.6703 8.09738 22.6703 8.50001C22.6703 8.92501 23.0059 9.24935 23.4085 9.24935H24.3144C25.7124 9.24935 26.842 10.379 26.842 11.777C26.842 13.1862 25.7124 14.3158 24.3144 14.3158Z" fill="#262626"/>
<path d="M24.7507 5.06645H22.9612V6.85592H24.7507V5.06645Z" fill="#262626"/>
<path d="M24.7507 13.421H22.9612V15.2105H24.7507V13.421Z" fill="#262626"/>
</g>
<defs>
<clipPath id="clip0_10_1668">
<rect width="34" height="34" fill="white"/>
</clipPath>
</defs>
</svg>
