<svg width="34" height="34" viewBox="0 0 34 34" fill="none" xmlns="http://www.w3.org/2000/svg">
<g clip-path="url(#clip0_10_1686)">
<path d="M32.9375 17C32.9375 25.8055 25.8055 32.9375 17 32.9375C8.19453 32.9375 1.0625 25.8055 1.0625 17C1.0625 8.19453 8.19453 1.0625 17 1.0625C21.2234 1.0625 25.2742 2.73594 28.2758 5.72422C31.2641 8.72578 32.9375 12.7766 32.9375 17Z" fill="#F3F3F1"/>
<path d="M25.8586 17C25.8586 21.8875 21.9008 25.8586 17 25.8586C12.0992 25.8586 8.14142 21.8875 8.14142 17C8.14142 12.1125 12.1125 8.1414 17 8.1414C21.8875 8.1414 25.8586 12.1125 25.8586 17Z" fill="#CF55C5"/>
<path d="M20.1875 17C20.1875 18.7664 18.7664 20.1875 17 20.1875C15.2336 20.1875 13.8125 18.7664 13.8125 17C13.8125 15.2336 15.2336 13.8125 17 13.8125C18.7664 13.8125 20.1875 15.2336 20.1875 17Z" fill="#F3F3F1"/>
<path d="M18.7399 18.7398L32.2602 23.2422L25.7524 25.7523L23.2422 32.2602L18.7399 18.7398Z" fill="#CF55C5"/>
<path d="M11.3289 17C11.3289 12.657 14.4633 9.04454 18.5938 8.30079C18.0758 8.20782 17.5445 8.15469 17 8.15469C12.1125 8.15469 8.14142 12.1125 8.14142 17.0133C8.14142 21.9141 12.0992 25.8719 17 25.8719C17.5445 25.8719 18.0758 25.8188 18.5938 25.7258C14.4633 24.9555 11.3289 21.343 11.3289 17Z" fill="#963B8E"/>
<path d="M22.3258 19.9352L18.7399 18.7398L23.2422 32.2602L24.9555 27.8242L22.3258 19.9352Z" fill="#963B8E"/>
<path d="M4.25 17C4.25 8.73906 10.5453 1.93906 18.5938 1.14219C18.0758 1.08906 17.5445 1.0625 17 1.0625C8.19453 1.0625 1.0625 8.19453 1.0625 17C1.0625 25.8055 8.19453 32.9375 17 32.9375C17.5445 32.9375 18.0758 32.9109 18.5938 32.8578C10.5453 32.0609 4.25 25.2609 4.25 17Z" fill="#D5DBE1"/>
<path d="M17 17C17 15.818 17.6508 14.8086 18.5938 14.2508C18.1289 13.9719 17.5844 13.8125 17 13.8125C15.2336 13.8125 13.8125 15.2336 13.8125 17C13.8125 18.7664 15.2336 20.1875 17 20.1875C17.5844 20.1875 18.1289 20.0148 18.5938 19.7492C17.6508 19.1914 17 18.182 17 17Z" fill="#D5DBE1"/>
<path d="M23.2422 33.3227C23.2289 33.3227 23.2289 33.3227 23.2156 33.3227C22.7641 33.3094 22.3789 33.0172 22.2328 32.5922L17.7172 19.0719C17.5844 18.6867 17.6906 18.2617 17.9695 17.9828C18.2484 17.7039 18.6734 17.5977 19.0586 17.7305L32.5789 22.2328C33.0039 22.3789 33.2961 22.7641 33.3094 23.2156C33.3227 23.6672 33.0437 24.0656 32.632 24.225L26.5625 26.5625L24.225 32.632C24.0789 33.057 23.6805 33.3227 23.2422 33.3227ZM20.4133 20.4133L23.3086 29.1125L24.743 25.3672C24.8492 25.0883 25.075 24.8625 25.3539 24.7562L29.0992 23.3219L20.4133 20.4133Z" fill="#262626"/>
<path d="M17 34C7.62344 34 0 26.3766 0 17C0 7.62344 7.62344 0 17 0C26.3766 0 34 7.62344 34 17C34 17.6906 33.9602 18.3945 33.8672 19.0852L31.7555 18.8063C31.8352 18.2086 31.875 17.6109 31.875 17C31.875 8.79219 25.2078 2.125 17 2.125C8.79219 2.125 2.125 8.79219 2.125 17C2.125 25.2078 8.79219 31.875 17 31.875C17.6109 31.875 18.2086 31.8352 18.8063 31.7555L19.0852 33.8672C18.4078 33.9602 17.7039 34 17 34Z" fill="#262626"/>
<path d="M16.575 26.9078C11.2492 26.682 7.07892 22.3391 7.07892 17C7.07892 11.5281 11.5281 7.0789 17 7.0789C22.3258 7.0789 26.682 11.2492 26.9078 16.5617L24.7828 16.6547C24.5969 12.4844 21.1836 9.2039 17 9.2039C12.7102 9.2039 9.20392 12.6969 9.20392 17C9.20392 21.1836 12.4844 24.5969 16.6547 24.7828L16.575 26.9078Z" fill="#262626"/>
<path d="M13.693 19.6562C13.082 18.8992 12.75 17.943 12.75 17C12.75 14.6625 14.6625 12.75 17 12.75C17.9695 12.75 18.8859 13.0687 19.6562 13.693L18.3414 15.3531C18.0625 15.1406 17.6109 14.875 17 14.875C15.8312 14.875 14.875 15.8312 14.875 17C14.875 17.6109 15.1406 18.0625 15.3531 18.3414L13.693 19.6562Z" fill="#262626"/>
</g>
<defs>
<clipPath id="clip0_10_1686">
<rect width="34" height="34" fill="white"/>
</clipPath>
</defs>
</svg>
