<svg width="16" height="20" viewBox="0 0 16 20" fill="none" xmlns="http://www.w3.org/2000/svg">
<path d="M15.3333 6.33325L9.83332 0.833252H2.49999C2.01376 0.833252 1.54744 1.02641 1.20363 1.37022C0.859811 1.71404 0.666656 2.18035 0.666656 2.66659V17.3333C0.666656 17.8195 0.859811 18.2858 1.20363 18.6296C1.54744 18.9734 2.01376 19.1666 2.49999 19.1666H13.5C13.9862 19.1666 14.4525 18.9734 14.7964 18.6296C15.1402 18.2858 15.3333 17.8195 15.3333 17.3333V6.33325ZM5.24999 16.4166H3.41666V8.16658H5.24999V16.4166ZM8.91666 16.4166H7.08332V10.9166H8.91666V16.4166ZM12.5833 16.4166H10.75V13.6666H12.5833V16.4166ZM9.83332 7.24992H8.91666V2.66659L13.5 7.24992H9.83332Z" fill="#272961"/>
</svg>
