<svg width="15" height="15" viewBox="0 0 15 15" fill="none" xmlns="http://www.w3.org/2000/svg">
<path d="M15 14.3713L11.6923 11.0636C12.7212 9.88891 13.3499 8.35582 13.3499 6.67497C13.3499 2.99452 10.3555 0 6.67497 0C2.99445 0 0 2.99445 0 6.67497C0 10.3555 2.99445 13.3499 6.67497 13.3499C8.3556 13.3499 9.8888 12.7212 11.0636 11.6923L14.3713 15L15 14.3713ZM6.67493 12.4612C3.48509 12.4612 0.889911 9.86595 0.889911 6.67618C0.889911 3.48641 3.48516 0.891154 6.67493 0.891154C9.8647 0.891154 12.46 3.48641 12.46 6.67618C12.46 9.86595 9.8647 12.4612 6.67493 12.4612Z" fill="#9D9D9D"/>
</svg>
