<svg width="16" height="11" viewBox="0 0 16 11" fill="none" xmlns="http://www.w3.org/2000/svg">
<path d="M15.4357 6.26605V0.350525C15.4357 0.257482 15.3947 0.168355 15.3217 0.102577C15.2489 0.0369206 15.1498 0 15.0467 0H0.692244C0.477443 0 0.303223 0.156862 0.303223 0.350518V10.6495C0.303223 10.7425 0.344202 10.8316 0.417202 10.8974C0.490206 10.9631 0.589123 11 0.692251 11H15.0467C15.1498 11 15.2489 10.9631 15.3217 10.8974C15.3947 10.8316 15.4357 10.7425 15.4357 10.6495V6.48513C15.4611 6.41386 15.4611 6.33732 15.4357 6.26604L15.4357 6.26605ZM14.6577 0.701074V5.68608L11.9848 3.9876C11.81 3.87646 11.5685 3.91327 11.4441 4.07001L8.78291 7.4284L6.18986 5.24444C6.05064 5.12792 5.83856 5.11912 5.68794 5.22341L1.08145 8.41341V0.701322L14.6577 0.701074ZM1.08169 10.2992V9.29314C1.08983 9.29032 1.09756 9.28678 1.10503 9.28262L5.90014 5.9524L8.57681 8.20985C8.65877 8.27929 8.77004 8.31328 8.88185 8.30313C8.99379 8.29311 9.09529 8.23992 9.16042 8.15727L11.8527 4.76039L14.6579 6.55176V10.2992L1.08169 10.2992Z" fill="#FFFAFA"/>
<path d="M4.46659 4.62344C4.9057 4.62576 5.32782 4.47061 5.63976 4.19223C5.95186 3.91384 6.12813 3.53508 6.12987 3.13943C6.1315 2.7439 5.95849 2.36381 5.64897 2.08333C5.33932 1.80274 4.91869 1.64452 4.47958 1.6438C4.04046 1.64307 3.61903 1.79969 3.30828 2.07917C2.99754 2.35854 2.82275 2.73792 2.82275 3.13357C2.8233 3.52713 2.9963 3.90444 3.30418 4.18356C3.61206 4.46257 4.02987 4.62066 4.46652 4.62347L4.46659 4.62344ZM4.46659 2.34484C4.6993 2.34252 4.92345 2.42382 5.08956 2.57065C5.25565 2.71761 5.34995 2.91801 5.35172 3.12768C5.35348 3.33736 5.26243 3.53911 5.09879 3.68813C4.93515 3.83728 4.71234 3.92152 4.47964 3.92226C4.24692 3.92311 4.02343 3.84034 3.85857 3.69228C3.6937 3.54434 3.60103 3.34323 3.60103 3.13353C3.60143 2.92605 3.69248 2.72702 3.8545 2.57944C4.01652 2.43187 4.23633 2.34764 4.4666 2.34482L4.46659 2.34484Z" fill="#FFFAFA"/>
</svg>
