<svg width="165" height="36" viewBox="0 0 165 36" fill="none" xmlns="http://www.w3.org/2000/svg">
<path d="M12.2317 29.5078C19.6927 29.5078 24.1067 25.9336 24.1067 20.3086V20.2891C24.1067 15.7773 21.3333 13.3555 15.3567 12.2031L12.4661 11.6562C9.43875 11.0898 8.11063 10.2891 8.11063 8.76562V8.74609C8.11063 7.125 9.595 5.93359 12.2317 5.93359C14.8098 5.93359 16.6263 7.08594 16.8411 8.94141L16.8606 9.15625H23.5208L23.5013 8.74609C23.2473 3.62891 19.2434 0.308594 12.1731 0.308594C5.70828 0.308594 1.00125 3.80469 1.00125 9.23438V9.25391C1.00125 13.5703 3.95047 16.3242 9.53641 17.3594L12.427 17.9062C15.7278 18.5508 16.9778 19.293 16.9778 20.8945V20.9141C16.9778 22.6719 15.22 23.8828 12.3684 23.8828C9.61453 23.8828 7.50516 22.6914 7.15359 20.875L7.11453 20.6602H0.454376L0.473907 21.0117C0.786407 26.4023 5.22 29.5078 12.2317 29.5078ZM26.7183 35.8359H33.6519V25.3477H33.7886C34.8433 27.9062 37.187 29.4492 40.2534 29.4492C45.5659 29.4492 48.6714 25.3672 48.6714 18.375V18.3555C48.6714 11.3242 45.5464 7.28125 40.1753 7.28125C37.148 7.28125 34.8823 8.86328 33.8081 11.5195H33.6519V7.73047H26.7183V35.8359ZM37.6363 23.8242C35.2144 23.8242 33.6128 21.7539 33.6128 18.3945V18.375C33.6128 14.9766 35.2339 12.9258 37.6363 12.9258C40.0777 12.9258 41.6402 14.957 41.6402 18.3555V18.375C41.6402 21.7344 40.0777 23.8242 37.6363 23.8242ZM57.5525 29.293C60.3259 29.293 62.4353 28.082 63.6463 25.9922H63.783V29H70.697V14.4883C70.697 10.1719 66.9275 7.28125 61.2048 7.28125C55.2869 7.28125 51.7517 10.1133 51.4197 14.2539L51.4002 14.5078H57.6306L57.6697 14.3125C57.9041 13.2188 58.9978 12.3594 60.8533 12.3594C62.7869 12.3594 63.783 13.3164 63.783 14.8594V15.9141L58.9392 16.2266C53.4509 16.5977 50.365 18.8438 50.365 22.8477V22.8672C50.365 26.5781 53.2752 29.293 57.5525 29.293ZM57.1619 22.418V22.3984C57.1619 21.1289 58.1189 20.3281 60.0525 20.2109L63.783 19.957V21.3828C63.783 23.1797 62.2009 24.5078 59.9744 24.5078C58.2752 24.5078 57.1619 23.7461 57.1619 22.418ZM81.7795 29H88.928V12.5547H89.0647L100.393 29H106.408V0.816406H99.26V17.0859H99.1233L87.8538 0.816406H81.7795V29ZM120.211 29.4492C126.911 29.4492 131.09 25.4062 131.09 18.375V18.3359C131.09 11.4023 126.833 7.28125 120.211 7.28125C113.61 7.28125 109.333 11.4414 109.333 18.3359V18.375C109.333 25.3867 113.473 29.4492 120.211 29.4492ZM120.231 24.1953C117.829 24.1953 116.364 22.125 116.364 18.375V18.3359C116.364 14.6641 117.868 12.5352 120.211 12.5352C122.555 12.5352 124.079 14.6641 124.079 18.3359V18.375C124.079 22.1055 122.594 24.1953 120.231 24.1953ZM137.335 29H144.678L147.999 14.6836H148.135L151.514 29H158.975L164.464 7.73047H157.628L154.932 22.75H154.796L151.514 7.73047H144.893L141.651 22.75H141.514L138.8 7.73047H131.807L137.335 29Z" fill="url(#paint0_linear_69_729)"/>
<defs>
<linearGradient id="paint0_linear_69_729" x1="-62" y1="14.1017" x2="226" y2="14.1017" gradientUnits="userSpaceOnUse">
<stop stop-color="#C320D9"/>
<stop offset="1" stop-color="#F67952"/>
</linearGradient>
</defs>
</svg>
