<svg width="21" height="21" viewBox="0 0 21 21" fill="none" xmlns="http://www.w3.org/2000/svg">
<path fill-rule="evenodd" clip-rule="evenodd" d="M9.54693 0.916687H11.4531C12.7813 0.916678 13.8377 0.916678 14.6894 0.987412C15.5618 1.05985 16.3051 1.21142 16.9839 1.56406C18.0341 2.10959 18.8904 2.96588 19.436 4.01608C19.7886 4.69495 19.9401 5.43821 20.0126 6.31056C20.0833 7.16236 20.0833 8.21871 20.0833 9.54696V11.4531C20.0833 12.7813 20.0833 13.8377 20.0126 14.6895C19.9401 15.5618 19.7886 16.3051 19.436 16.9839C18.8904 18.0341 18.0341 18.8904 16.9839 19.436C16.3051 19.7887 15.5618 19.9402 14.6894 20.0126C13.8377 20.0834 12.7813 20.0834 11.4531 20.0834H9.54693C8.21868 20.0834 7.16233 20.0834 6.31053 20.0126C5.43818 19.9402 4.69491 19.7887 4.01605 19.436C2.96585 18.8904 2.10956 18.0341 1.56403 16.9839C1.21139 16.3051 1.05982 15.5618 0.987382 14.6895C0.916647 13.8377 0.916647 12.7813 0.916657 11.4531V9.54696C0.916647 8.2187 0.916647 7.16235 0.987382 6.31056C1.05982 5.43821 1.21139 4.69495 1.56403 4.01608C2.10956 2.96588 2.96585 2.10959 4.01605 1.56406C4.69491 1.21142 5.43818 1.05985 6.31053 0.987412C7.16232 0.916678 8.21867 0.916678 9.54693 0.916687ZM6.46915 2.8975C5.71748 2.95992 5.25927 3.07809 4.89959 3.26494C4.19946 3.62863 3.6286 4.19949 3.26491 4.89962C3.07806 5.2593 2.95989 5.71751 2.89747 6.46918C2.83409 7.23234 2.83332 8.20912 2.83332 9.5896V11.4104C2.83332 12.7909 2.83409 13.7676 2.89747 14.5309C2.95989 15.2826 3.07806 15.7408 3.26491 16.1004C3.6286 16.8006 4.19946 17.3715 4.89959 17.7351C5.25927 17.9219 5.71748 18.0401 6.46915 18.1026C7.23231 18.1659 8.20908 18.1667 9.58957 18.1667H11.4104C12.7909 18.1667 13.7676 18.1659 14.5308 18.1026C15.2826 18.0401 15.7407 17.9219 16.1004 17.7351C16.8006 17.3715 17.3714 16.8006 17.7351 16.1004C17.9219 15.7408 18.0401 15.2826 18.1025 14.5309C18.1659 13.7676 18.1667 12.7909 18.1667 11.4104V9.5896C18.1667 8.20912 18.1659 7.23234 18.1025 6.46918C18.0401 5.71751 17.9219 5.2593 17.7351 4.89962C17.3714 4.19949 16.8006 3.62863 16.1004 3.26494C15.7407 3.07809 15.2826 2.95992 14.5308 2.8975C13.7676 2.83412 12.7909 2.83335 11.4104 2.83335H9.58957C8.20908 2.83335 7.23231 2.83412 6.46915 2.8975ZM10.3355 5.47582C10.8648 5.47582 11.2939 5.90488 11.2939 6.43416V11.1943L14.6738 12.4793C15.1686 12.6673 15.4172 13.2208 15.2291 13.7155C15.0411 14.2103 14.4875 14.4589 13.9928 14.2708L9.99504 12.7511C9.62311 12.6097 9.37721 12.2532 9.37721 11.8553V6.43416C9.37721 5.90488 9.80625 5.47582 10.3355 5.47582Z" fill="#272961"/>
</svg>
