<svg width="26" height="26" viewBox="0 0 26 26" fill="none" xmlns="http://www.w3.org/2000/svg">
<g clip-path="url(#clip0_24_748)">
<path fill-rule="evenodd" clip-rule="evenodd" d="M5.41666 10.2917C5.41666 7.59936 7.59927 5.41675 10.2917 5.41675C12.9841 5.41675 15.1667 7.59936 15.1667 10.2917C15.1667 12.9842 12.9841 15.1667 10.2917 15.1667C7.59927 15.1667 5.41666 12.9842 5.41666 10.2917Z" fill="#272961"/>
<path fill-rule="evenodd" clip-rule="evenodd" d="M5.02792 17.0076C6.36298 16.4281 8.11467 16.25 10.2916 16.25C12.4705 16.25 14.2234 16.4284 15.559 17.0092C17.0138 17.6418 17.898 18.7192 18.3614 20.2406C18.5786 20.9536 18.043 21.6667 17.305 21.6667H3.28036C2.54139 21.6667 2.00466 20.9525 2.22255 20.2382C2.68661 18.7166 3.57217 17.6395 5.02792 17.0076Z" fill="#272961"/>
<path d="M20.5833 3.25008C20.5833 2.65178 20.0983 2.16675 19.5 2.16675C18.9017 2.16675 18.4167 2.65178 18.4167 3.25008V5.41675H16.25C15.6517 5.41675 15.1667 5.90178 15.1667 6.50008C15.1667 7.09838 15.6517 7.58341 16.25 7.58341H18.4167V9.75008C18.4167 10.3484 18.9017 10.8334 19.5 10.8334C20.0983 10.8334 20.5833 10.3484 20.5833 9.75008V7.58341H22.75C23.3483 7.58341 23.8333 7.09838 23.8333 6.50008C23.8333 5.90178 23.3483 5.41675 22.75 5.41675H20.5833V3.25008Z" fill="#272961"/>
</g>
<defs>
<clipPath id="clip0_24_748">
<rect width="26" height="26" fill="white"/>
</clipPath>
</defs>
</svg>
