<svg width="30" height="26" viewBox="0 0 30 26" fill="none" xmlns="http://www.w3.org/2000/svg">
<g clip-path="url(#clip0_10_1715)">
<path d="M22.6921 2.15893V5.87322H3.41663C2.05231 5.87322 0.932861 4.77054 0.932861 3.4009C0.932861 2.71607 1.20106 2.1009 1.6675 1.65982C2.11061 1.20715 2.7403 0.928574 3.41663 0.928574H21.456C22.144 0.928574 22.6921 1.48572 22.6921 2.15893Z" fill="#575757"/>
<path d="M3.73147 3.4009C3.73147 2.71607 3.99967 2.1009 4.46611 1.65982C4.90922 1.20715 5.53891 0.928574 6.21524 0.928574H3.41663C2.72864 0.928574 2.11061 1.19554 1.6675 1.65982C1.21272 2.1009 0.932861 2.72768 0.932861 3.4009C0.932861 4.77054 2.05231 5.87322 3.41663 5.87322H6.21524C4.85092 5.87322 3.73147 4.77054 3.73147 3.4009Z" fill="#262626"/>
<path d="M26.4235 7.1152V23.8295C26.4235 24.5143 25.8638 25.0714 25.1758 25.0714H3.41663C2.05231 25.0714 0.932861 23.9572 0.932861 22.5875V3.40091C0.932861 4.77055 2.05231 5.87323 3.41663 5.87323H25.1875C25.8638 5.87323 26.4235 6.43037 26.4235 7.1152Z" fill="#575757"/>
<path d="M3.73147 22.5875V5.87323H3.41663C2.05231 5.87323 0.932861 4.77055 0.932861 3.40091V22.5875C0.932861 23.9456 2.05231 25.0598 3.41663 25.0598H6.21524C4.85092 25.0714 3.73147 23.9572 3.73147 22.5875Z" fill="#262626"/>
<path d="M28.919 18.258H24.2547C22.7038 18.258 21.4561 17.0161 21.4561 15.4723C21.4561 13.9286 22.7038 12.6866 24.2547 12.6866H28.919V18.258Z" fill="#575757"/>
<path d="M24.2547 15.4723C24.2547 13.9286 25.5024 12.6866 27.0533 12.6866H24.2547C22.7038 12.6866 21.4561 13.9286 21.4561 15.4723C21.4561 17.0161 22.7038 18.258 24.2547 18.258H27.0533C25.5024 18.258 24.2547 17.0161 24.2547 15.4723Z" fill="#262626"/>
<path d="M25.1875 26H3.41664C1.53924 26 0 24.4679 0 22.5991V3.40091H1.86574V22.5875C1.86574 23.4464 2.56539 24.1313 3.41664 24.1313H25.1875C25.3508 24.1313 25.5023 23.992 25.5023 23.8179V18.2464H27.3681V23.8179C27.3681 25.025 26.3886 26 25.1875 26Z" fill="white"/>
<path d="M28.919 19.1866H24.2547C22.2024 19.1866 20.5232 17.5152 20.5232 15.4723C20.5232 13.4295 22.2024 11.758 24.2547 11.758H28.919C29.4321 11.758 29.8519 12.1759 29.8519 12.6866V18.258C29.8519 18.7688 29.4321 19.1866 28.919 19.1866ZM24.2547 13.6152C23.2285 13.6152 22.3889 14.4509 22.3889 15.4723C22.3889 16.4938 23.2285 17.3295 24.2547 17.3295H27.9862V13.6152H24.2547Z" fill="white"/>
<path d="M27.3681 12.6866H25.5023V7.11518C25.5023 6.95268 25.3624 6.80178 25.1875 6.80178H3.41664C1.53924 6.81339 0 5.28125 0 3.40089C0 1.53214 1.53924 0 3.41664 0H21.456C22.6571 0 23.6366 0.975 23.6366 2.17054V4.95625H25.1875C26.3886 4.95625 27.3681 5.93125 27.3681 7.12679V12.6866ZM3.41664 1.85714C2.56539 1.85714 1.86574 2.55357 1.86574 3.40089C1.86574 4.24821 2.56539 4.94464 3.41664 4.94464H21.7592V2.15893C21.7592 1.98482 21.6193 1.84554 21.4444 1.84554H3.41664V1.85714Z" fill="white"/>
</g>
<defs>
<clipPath id="clip0_10_1715">
<rect width="29.8519" height="26" fill="white"/>
</clipPath>
</defs>
</svg>
